<!--?xml version="1.0" encoding="UTF-8" standalone="no"?--><svg width="100%" height="100%" viewBox="0 0 1722 686" version="1.1" xmlns="http://www.w3.org/2000/svg" xmlns:xlink="http://www.w3.org/1999/xlink" xml:space="preserve" xmlns:serif="http://www.serif.com/" style="fill-rule:evenodd;clip-rule:evenodd;stroke-linejoin:round;stroke-miterlimit:2;"><path d="M240.834,471.172c-0.229,0 -1.713,-1.482 -4.452,-4.445c-4.737,-5.129 -8.375,-12.708 -10.915,-22.738c-2.54,-10.03 -4.58,-24.932 -6.121,-44.707l-1.027,-12.309l0,13.933c0,5.471 0.251,11.654 0.752,18.549c0.613,8.605 1.587,16.64 2.924,24.106l-2.564,-4.445c-2.792,-4.901 -4.758,-17.495 -5.898,-37.783c-0.456,-8.605 -0.883,-12.908 -1.282,-12.908l-0.085,0.085c-0.342,1.026 -0.684,1.539 -1.026,1.539c-0.741,0 -1.225,-3.448 -1.453,-10.343l0,-1.282c0,-4.217 0.228,-10.685 0.684,-19.404c1.083,-23.422 2.393,-40.774 3.932,-52.058c0.741,-5.3 1.111,-9.203 1.111,-11.711c0,-1.083 -0.085,-1.624 -0.256,-1.624c-0.627,0 -2.536,12.252 -5.727,36.757c-2.507,19.148 -4.018,29.178 -4.53,30.089c-0.285,0 -0.427,-1.197 -0.427,-3.59c0,-5.129 0.484,-13.535 1.453,-25.217c1.311,-16.469 3.704,-35.218 7.18,-56.247c2.849,-17.78 10.229,-55.677 22.14,-113.69l5.471,-27.012c1.026,-5.129 1.596,-8.263 1.71,-9.403c0,-0.456 -0.028,-0.684 -0.085,-0.684c-0.171,0 -0.399,0.256 -0.684,0.769c-1.083,1.881 -8.463,19.946 -22.14,54.195c-28.038,70.208 -47.499,116.682 -58.384,139.42c-6.041,12.594 -11.098,21.655 -15.173,27.183c-4.075,5.528 -7.822,8.919 -11.241,10.172c-2.564,1.026 -5.043,1.539 -7.437,1.539c-1.881,0 -3.733,-0.342 -5.556,-1.026c-4.046,-1.539 -7.209,-4.616 -9.488,-9.232c-2.735,-5.186 -4.103,-18.635 -4.103,-40.347c0,-29.918 2.821,-80.238 8.463,-150.96c1.767,-22.054 2.65,-35.247 2.65,-39.578l0,-0.684c-0.456,0 -2.166,5.074 -5.129,15.221c-2.336,7.81 -11.654,37.652 -27.952,89.525c-8.833,27.761 -17.994,54.909 -27.482,81.445c-9.488,26.535 -17.253,46.699 -23.294,60.494c-5.585,12.427 -10.685,22.887 -15.301,31.381c-4.616,8.494 -7.522,12.741 -8.719,12.741c-0.741,0 -3.02,1.966 -6.838,5.898c-2.735,2.906 -4.246,4.36 -4.53,4.36l0,-0.085c0,-0.342 1.795,-2.792 5.385,-7.351c2.849,-3.647 5.357,-7.537 7.522,-11.668c2.166,-4.132 3.248,-6.824 3.248,-8.078c0,-0.456 -0.114,-0.684 -0.342,-0.684c-0.399,0 -1.111,0.655 -2.137,1.966c-0.456,0.627 -0.741,0.94 -0.855,0.94c-0.114,0 -0.171,-0.085 -0.171,-0.256c0,-0.855 3.106,-8.064 9.317,-21.627c1.995,-4.274 3.533,-7.907 4.616,-10.899c1.083,-2.992 1.624,-4.83 1.624,-5.514l-0.085,-0.342c-0.456,0 -1.767,2.621 -3.932,7.864c-3.704,8.605 -8.206,18.008 -13.506,28.209c-3.02,5.699 -4.73,8.548 -5.129,8.548l0,-0.085c0,-0.741 1.938,-5.043 5.813,-12.908c3.875,-7.864 7.594,-16.384 11.155,-25.559c3.562,-9.175 6.026,-16.469 7.394,-21.883c0.741,-3.077 1.995,-7.522 3.761,-13.335c1.14,-3.932 1.71,-6.639 1.71,-8.121c0,-0.57 -0.085,-0.94 -0.256,-1.111c-0.969,-0.741 -1.453,-1.624 -1.453,-2.65c0,-0.513 0.142,-0.769 0.427,-0.769c0.171,0 0.399,0.085 0.684,0.256c0.285,0.171 0.513,0.256 0.684,0.256c0.228,0 0.342,-0.142 0.342,-0.427c0,-0.228 -0.1,-0.598 -0.299,-1.111c-0.199,-0.513 -0.299,-0.969 -0.299,-1.368c0,-1.083 0.47,-2.151 1.41,-3.206c0.94,-1.054 1.41,-1.98 1.41,-2.778c0,-0.171 -0.028,-0.313 -0.085,-0.427c-0.057,-0.114 -0.085,-0.313 -0.085,-0.598c0,-1.482 0.633,-4.474 1.899,-8.976c3.857,-14.076 6.045,-23.906 6.563,-29.491c0,-3.59 6.128,-24.505 18.385,-62.743c6.841,-21.541 10.661,-33.651 11.458,-36.329l12.913,-41.886c3.705,-11.739 8.094,-26.1 13.168,-43.082l4.961,-17.267c2.793,-9.574 7.268,-21.969 13.425,-37.184c2.622,-6.497 4.618,-11.084 5.986,-13.762c3.649,-6.611 7.953,-9.916 12.913,-9.916c1.425,0 2.878,0.256 4.361,0.769c3.078,1.083 5.387,3.277 6.927,6.582c1.254,2.279 1.881,5.357 1.881,9.232c0,2.735 -0.285,9.089 -0.855,19.062c-0.969,14.988 -2.679,38.182 -5.13,69.582c-6.214,76.078 -9.749,127.766 -10.604,155.063c-0.4,13.05 -0.799,23.507 -1.198,31.372c-0.171,2.507 -0.256,4.644 -0.256,6.411c0,4.616 0.485,6.924 1.455,6.924c2.85,0 25.71,-54.081 68.58,-162.243c9.236,-23.251 14.538,-36.386 15.906,-39.407c11.915,-26.841 19.867,-43.367 23.857,-49.579c3.649,-5.585 7.411,-9.089 11.288,-10.514c1.426,-0.513 3.336,-0.769 5.73,-0.769c2.394,0 4.204,0.214 5.429,0.641c1.226,0.427 2.438,1.325 3.634,2.693c2.623,2.735 4.376,5.642 5.26,8.719c0.884,3.077 1.326,7.009 1.326,11.796c0,5.471 -0.142,10.457 -0.427,14.959c-0.4,5.528 -2.169,16.982 -5.308,34.363c-2.854,16.127 -6.906,37.284 -12.157,63.47c-5.25,26.186 -9.33,45.718 -12.241,58.597c-4.736,21.313 -9.416,49.28 -14.039,83.9c-4.623,34.62 -7.419,62.558 -8.389,83.814l-0.085,4.189c0,10.258 1.113,20.288 3.338,30.089c2.454,11.17 5.764,19.518 9.931,25.046c2.112,2.792 3.168,4.331 3.168,4.616l-0.085,0.085Zm-229.294,-65.222c0.285,0 0.969,-1.197 2.052,-3.59c0.684,-1.254 1.026,-1.995 1.026,-2.223l-0.085,-0.085c-0.114,0 -0.57,0.541 -1.368,1.624c-1.254,1.653 -1.881,2.849 -1.881,3.59c0,0.456 0.085,0.684 0.256,0.684Zm104.971,-61.546c0.114,-0.057 0.171,-0.199 0.171,-0.427c0,-0.285 -0.114,-0.727 -0.342,-1.325c-0.228,-0.598 -0.442,-0.997 -0.641,-1.197c-0.199,-0.199 -0.385,-0.299 -0.556,-0.299c-0.228,0 -0.342,0.228 -0.342,0.684c0,0.399 0.142,0.855 0.427,1.368c0.513,0.798 0.912,1.197 1.197,1.197l0.085,0Zm-2.564,-5.471c0.342,0 0.513,-0.598 0.513,-1.795c0,-1.197 -0.171,-1.795 -0.513,-1.795c-0.228,0 -0.342,0.598 -0.342,1.795c0,1.197 0.114,1.795 0.342,1.795Zm-1.197,-7.351c0.342,0 0.513,-0.655 0.513,-1.966c0,-0.741 -0.085,-1.425 -0.256,-2.052c-0.114,-0.342 -0.199,-0.513 -0.256,-0.513c-0.171,0 -0.285,0.684 -0.342,2.052c0,1.653 0.114,2.479 0.342,2.479Zm-0.94,-14.617c0.513,0 0.94,-0.484 1.282,-1.453c0.228,-0.627 0.342,-1.282 0.342,-1.966c0,-1.197 -0.313,-1.795 -0.94,-1.795c-0.456,0 -0.855,0.456 -1.197,1.368c-0.228,0.627 -0.342,1.282 -0.342,1.966c0,1.254 0.285,1.881 0.855,1.881Zm1.026,-14.703c0.285,0 0.427,-1.168 0.427,-3.505c0,-2.678 -0.142,-4.018 -0.427,-4.018c-0.171,0 -0.256,1.197 -0.256,3.59c0,2.621 0.085,3.932 0.256,3.932Zm54.11,-3.676c0.171,0 0.399,-0.1 0.684,-0.299c0.285,-0.199 0.556,-0.484 0.812,-0.855c0.256,-0.37 0.385,-0.727 0.385,-1.069c0,-0.456 -0.199,-0.684 -0.598,-0.684c-0.171,0 -0.413,0.085 -0.727,0.256c-0.313,0.171 -0.584,0.456 -0.812,0.855c-0.228,0.399 -0.342,0.769 -0.342,1.111c0,0.456 0.199,0.684 0.598,0.684Zm2.479,-5.813c0.456,0 1.482,-1.866 3.077,-5.599c1.596,-3.733 2.393,-5.941 2.393,-6.625c0,-0.114 -0.028,-0.171 -0.085,-0.171c-0.513,0 -1.624,2.023 -3.334,6.069c-1.425,3.305 -2.137,5.328 -2.137,6.069c0,0.171 0.028,0.256 0.085,0.256Zm-56.347,-10.6c0.375,0 0.75,-3.305 1.126,-9.916c0.228,-4.559 0.342,-9.061 0.342,-13.506c0,-5.015 -0.085,-7.522 -0.256,-7.522c-0.448,0 -0.932,6.069 -1.453,18.207l0,9.574c0,2.109 0.081,3.163 0.242,3.163Zm66.092,-11.54c0.342,0 2.593,-4.986 6.753,-14.959c3.875,-9.004 5.813,-14.104 5.813,-15.301l0,-0.085c-0.456,0 -1.938,3.02 -4.445,9.061l-7.693,18.378c-0.57,1.311 -0.855,2.166 -0.855,2.564c0,0.228 0.142,0.342 0.427,0.342Zm-63.854,-24.875c0.057,0 0.114,-0.228 0.171,-0.684c0.171,-0.798 0.256,-1.71 0.256,-2.735c0,-1.026 -0.085,-1.938 -0.256,-2.735c-0.057,-0.456 -0.114,-0.684 -0.171,-0.684c-0.228,0 -0.342,1.14 -0.342,3.419c0,2.279 0.114,3.419 0.342,3.419Zm77.104,-7.095c0.285,0 0.826,-0.855 1.624,-2.564c1.14,-2.336 1.71,-3.961 1.71,-4.872c0,-0.285 -0.057,-0.427 -0.171,-0.427c-0.285,0 -0.826,0.912 -1.624,2.735c-1.14,2.678 -1.71,4.331 -1.71,4.958c0,0.114 0.057,0.171 0.171,0.171Zm5.043,-11.796c0.228,0 0.513,-0.37 0.855,-1.111c0.684,-1.254 1.083,-2.507 1.197,-3.761c0,-0.228 -0.057,-0.342 -0.171,-0.342c-0.228,0 -0.541,0.299 -0.94,0.898c-0.399,0.598 -0.698,1.239 -0.898,1.923c-0.199,0.684 -0.299,1.311 -0.299,1.881c0.057,0.342 0.142,0.513 0.256,0.513Zm-166.175,97.876c-0.228,0 -0.342,-0.37 -0.342,-1.111c0,-0.798 0.114,-1.482 0.342,-2.052c0.399,-0.912 0.969,-1.368 1.71,-1.368c0.228,0 0.342,0.171 0.342,0.513c0,0.627 -0.37,1.567 -1.111,2.821c-0.456,0.798 -0.769,1.197 -0.94,1.197Z" style="fill-rule: nonzero;" class="svg-elem-1"></path><path d="M279.523,399.795c-5.186,0 -9.688,-2.221 -13.506,-6.664c-2.792,-3.19 -4.616,-6.236 -5.471,-9.14c-0.627,-1.994 -0.94,-5.867 -0.94,-11.619c0,-8.144 0.313,-14.664 0.94,-19.562c1.596,-12.7 5.328,-28.561 11.198,-47.584c3.305,-10.82 6.44,-20.032 9.403,-27.634c2.963,-7.603 4.986,-11.405 6.069,-11.405l0.427,0c0.627,0 1.282,-0.541 1.966,-1.624c0.399,-0.741 0.684,-1.111 0.855,-1.111c0.228,0 0.342,0.285 0.342,0.855l-0.256,2.992c0,1.425 0.342,2.137 1.026,2.137l0.769,0c0.627,0 0.94,0.37 0.94,1.111c0,0.798 -0.399,2.251 -1.197,4.36c-0.513,1.311 -0.769,2.137 -0.769,2.479c0,0.114 0.028,0.171 0.085,0.171c0.171,0 0.598,-0.513 1.282,-1.539c1.254,-1.482 1.881,-2.778 1.881,-3.889c0,-1.111 0.456,-1.923 1.368,-2.436c0.228,-0.171 0.399,-0.256 0.513,-0.256c0.171,0 0.256,0.171 0.256,0.513c0,0.399 -0.114,0.997 -0.342,1.795c-0.798,2.393 -1.197,4.559 -1.197,6.497c0,2.279 0.627,4.758 1.881,7.437c2.109,4.445 3.163,7.522 3.163,9.232l0,2.735c0,3.362 -1.026,7.95 -3.077,13.762c-2.393,7.009 -3.761,11.853 -4.103,14.532c0,1.824 -0.37,3.248 -1.111,4.274c-1.026,1.824 -2.593,8.748 -4.701,20.772c-0.855,4.673 -1.282,7.779 -1.282,9.317c0,2.279 0.541,3.419 1.624,3.419c3.077,0 10.571,-9.033 22.482,-27.098l4.189,-6.582c2.166,-3.476 4.246,-6.326 6.24,-8.548c2.223,-2.45 4.117,-5.129 5.684,-8.035c1.567,-2.906 3.946,-6.411 7.138,-10.514c3.932,-5.015 6.069,-7.522 6.411,-7.522l0,0.085c0,0.228 -0.256,0.883 -0.769,1.966c-0.114,0.285 -0.171,0.513 -0.171,0.684c0,0.114 0.028,0.171 0.085,0.171c0.399,0 1.795,-1.311 4.189,-3.932c2.906,-3.191 4.644,-4.787 5.214,-4.787c0.171,0 0.256,0.085 0.256,0.256c0,0.798 -1.154,3.163 -3.462,7.095c-2.308,3.932 -3.462,6.24 -3.462,6.924c0,0.114 0.057,0.171 0.171,0.171c0.399,0 1.681,-1.197 3.847,-3.59c1.938,-2.109 3.248,-3.163 3.932,-3.163c0.342,0 0.513,0.285 0.513,0.855c0,0.912 -0.456,2.564 -1.368,4.958c-0.456,1.083 -0.684,1.966 -0.684,2.65c0,0.798 0.285,1.353 0.855,1.667c0.57,0.313 0.855,0.926 0.855,1.838c0,1.596 -0.798,4.417 -2.393,8.463c-0.513,1.254 -0.94,2.052 -1.282,2.393c-0.627,0.741 -0.94,1.567 -0.94,2.479c0,0.114 0.057,0.171 0.171,0.171c0.57,0 1.938,-1.254 4.103,-3.761c1.881,-2.223 3.163,-3.334 3.847,-3.334c0.342,0.057 0.513,0.342 0.513,0.855c0,1.254 -0.997,3.804 -2.992,7.651c-1.995,3.847 -5.827,9.816 -11.497,17.908c-5.67,8.092 -11.568,16.156 -17.695,24.191c-6.126,8.035 -10.899,13.848 -14.318,17.438c-10.429,10.714 -19.661,16.07 -27.696,16.07Zm6.753,-4.189c0.228,0 0.655,-0.128 1.282,-0.385c0.627,-0.256 1.054,-0.499 1.282,-0.727c0.228,-0.228 0.342,-0.399 0.342,-0.513c0,-0.285 -0.199,-0.427 -0.598,-0.427c-0.456,0 -1.026,0.342 -1.71,1.026c-0.513,0.456 -0.769,0.769 -0.769,0.94c0,0.057 0.057,0.085 0.171,0.085Zm-14.104,-2.137c0.171,0 0.256,-0.142 0.256,-0.427c0,-0.285 -0.912,-1.197 -2.735,-2.735l-2.821,-2.393c3.134,3.704 4.901,5.556 5.3,5.556Zm19.49,-0.085c0.969,0 3.448,-1.852 7.437,-5.556c1.995,-1.938 2.992,-2.992 2.992,-3.163c-0.114,0 -0.57,0.313 -1.368,0.94c-2.678,2.223 -5.157,4.103 -7.437,5.642c-1.254,0.855 -1.881,1.51 -1.881,1.966c0,0.114 0.085,0.171 0.256,0.171Zm-24.875,-6.411c0.228,0 0.342,-0.171 0.342,-0.513c0,-0.798 -0.456,-2.023 -1.368,-3.676c-0.798,-1.482 -1.368,-2.223 -1.71,-2.223c-0.114,0 -0.171,0.114 -0.171,0.342c0,0.798 0.199,1.695 0.598,2.693c0.399,0.997 0.826,1.809 1.282,2.436c0.456,0.627 0.798,0.94 1.026,0.94Zm44.621,-140.616c-1.482,0 -2.45,-0.456 -2.906,-1.368c-0.513,-1.14 -1.368,-1.71 -2.564,-1.71c-0.513,0 -1.339,-0.285 -2.479,-0.855c-1.14,-0.57 -2.279,-1.311 -3.419,-2.223c-2.849,-2.052 -4.872,-3.077 -6.069,-3.077c-1.197,0 -2.052,-0.513 -2.564,-1.539l0,-0.256c0,-1.197 1.225,-4.559 3.676,-10.087c2.678,-5.984 4.388,-8.976 5.129,-8.976c0.285,0 1.311,0.442 3.077,1.325c1.767,0.883 3.79,1.952 6.069,3.206c2.279,1.254 4.402,2.465 6.368,3.633c1.966,1.168 3.377,2.066 4.231,2.693c0.855,0.627 1.71,1.282 2.564,1.966l-6.838,15.387c-0.798,1.254 -2.223,1.881 -4.274,1.881Z" style="fill-rule: nonzero;" class="svg-elem-2"></path><path d="M317.04,584.263c-0.564,0 -0.845,-0.598 -0.845,-1.795c0,-0.513 0.057,-1.054 0.171,-1.624c0.285,-1.425 0.556,-3.861 0.812,-7.309c0.256,-3.448 0.484,-7.123 0.684,-11.027c0.199,-3.904 0.328,-7.195 0.385,-9.873c0,-2.678 -0.085,-4.018 -0.256,-4.018c-0.399,0.399 -1.083,4.274 -2.052,11.625c-1.083,8.605 -2.251,12.908 -3.505,12.908l-0.076,-0.085c0,-0.114 0.098,-0.356 0.295,-0.727c0.196,-0.37 0.294,-0.698 0.294,-0.983c0,-0.513 -0.199,-0.955 -0.598,-1.325c-0.399,-0.37 -0.598,-2.436 -0.598,-6.197l0,-9.574c0,-1.938 -0.305,-2.906 -0.915,-2.906c-0.167,0 -0.319,0.028 -0.457,0.085c-0.139,0.057 -0.264,0.085 -0.375,0.085c-0.72,0 -1.164,-2.194 -1.33,-6.582c-0.171,-2.735 -0.313,-6.782 -0.427,-12.138c-0.171,-9.973 -0.399,-14.959 -0.684,-14.959c-0.114,0 -0.313,1.04 -0.598,3.12c-0.285,2.08 -0.684,4.502 -1.197,7.266c-0.513,2.764 -1.026,5.229 -1.539,7.394c-0.627,2.963 -1.054,4.445 -1.282,4.445c-0.171,0 -0.256,-0.798 -0.256,-2.393c0,-9.006 0.427,-19.123 1.282,-30.352c0.456,-6.156 0.969,-11.285 1.539,-15.389c4.046,-30.438 7.323,-55.889 9.83,-76.352c5.699,-46.796 11.198,-86.496 16.498,-119.099c5.3,-32.604 12.509,-70.822 21.627,-114.656c4.274,-21.033 6.411,-32.376 6.411,-34.031l-0.684,0c-3.134,0 -14.275,1.165 -33.423,3.494c-9.118,1.137 -17.695,2.274 -25.73,3.41c-8.548,1.25 -19.917,3.154 -34.107,5.711c-19.205,3.466 -34.135,6.363 -44.792,8.694c-2.109,0.454 -3.533,0.738 -4.274,0.852l-20.003,4.348c-9.688,2.045 -16.156,3.068 -19.404,3.068c-0.684,0 -2.223,-0.285 -4.616,-0.855c3.818,-1.995 5.841,-3.277 6.069,-3.847c0.228,-0.57 0.342,-0.94 0.342,-1.111c0,-0.513 -0.484,-0.826 -1.453,-0.94c-0.171,0 -0.256,-0.057 -0.256,-0.171c0,-0.228 1.168,-0.798 3.505,-1.71c3.647,-1.425 5.471,-2.308 5.471,-2.65c0,-0.114 -0.142,-0.171 -0.427,-0.171c-0.456,0 -1.282,0.114 -2.479,0.342c-3.989,0.969 -6.354,1.453 -7.095,1.453c-0.228,0 -0.342,-0.028 -0.342,-0.085c0,-0.228 1.197,-0.798 3.59,-1.71c3.647,-1.596 6.91,-3.32 9.788,-5.172c2.878,-1.852 4.402,-3.263 4.573,-4.231c0,-0.342 0.427,-0.94 1.282,-1.795c0.57,-0.513 2.849,-2.194 6.838,-5.043c1.083,-0.798 1.824,-1.396 2.223,-1.795c1.083,-1.14 3.519,-2.265 7.309,-3.377c3.79,-1.111 9.788,-2.436 17.994,-3.975c11.227,-2.166 18.207,-3.59 20.943,-4.274c3.476,-0.798 7.351,-1.425 11.625,-1.881c4.787,-0.513 7.465,-0.912 8.035,-1.197c1.539,-0.57 12.566,-2.365 33.081,-5.385c20.686,-3.077 35.703,-5.129 45.049,-6.155l18.378,-2.052c2.279,-7.75 4.16,-14.931 5.642,-21.541c7.408,-30.26 12.11,-48.724 14.104,-55.392c1.311,-3.989 2.365,-7.636 3.163,-10.942c0.684,-2.849 1.339,-4.274 1.966,-4.274c0.228,0 0.456,0.214 0.684,0.641c0.228,0.427 0.427,0.641 0.598,0.641c0.285,0 0.427,-0.769 0.427,-2.308c0,-2.166 0.399,-3.505 1.197,-4.018l0.15,0c0.299,0 0.449,0.741 0.449,2.223l0,3.59c-0.285,1.995 -0.427,3.419 -0.427,4.274c0,0.684 0.114,1.026 0.342,1.026c0.228,0 0.698,-0.456 1.41,-1.368c0.712,-0.912 1.182,-1.368 1.41,-1.368c0.057,0 0.085,0.085 0.085,0.256c0,1.14 -0.741,5.015 -2.223,11.625c-0.741,2.678 -1.111,4.417 -1.111,5.214c0,0.456 0.142,0.684 0.427,0.684c0.969,0 2.052,-2.878 3.248,-8.634c1.425,-6.895 2.536,-10.343 3.334,-10.343c0.057,0 0.085,0.114 0.085,0.342c0,0.342 -0.085,0.94 -0.256,1.795c-2.052,10.03 -3.077,18.891 -3.077,26.585c0,3.362 0.313,5.3 0.94,5.813c0.627,0.513 0.94,3.362 0.94,8.548l0,4.018c0,1.881 0.085,3.562 0.256,5.043c0,1.938 0.1,2.978 0.299,3.12c0.199,0.142 0.299,0.556 0.299,1.239c0,2.849 -1.396,10.058 -4.189,21.627l-2.137,8.976c7.522,-0.627 15.045,-1.311 22.567,-2.052c1.197,-0.171 8.121,-0.798 20.772,-1.881c3.134,-0.228 5.841,-0.456 8.121,-0.684c9.403,-0.741 25.473,-1.425 48.211,-2.052l2.821,0c4.844,0 7.266,0.228 7.266,0.684c0,0.627 3.32,0.94 9.959,0.94c6.639,0 9.959,0.37 9.959,1.111l0,0.085c-0.627,0.798 -2.621,1.254 -5.984,1.368c-3.647,0.114 -7.408,0.684 -11.284,1.71l-6.155,1.624l9.745,0c3.647,0 5.528,0.137 5.642,0.41c0,0.819 -0.641,1.611 -1.923,2.376c-1.282,0.764 -2.55,1.146 -3.804,1.146c-0.741,0 -1.681,0.271 -2.821,0.812c-1.14,0.541 -2.166,1.239 -3.077,2.094c-2.166,1.881 -6.582,3.619 -13.25,5.214l-10.172,2.308l9.232,0.598c4.559,0.399 6.838,0.855 6.838,1.368c0,0.456 -1.453,0.969 -4.36,1.539c-6.44,1.254 -17.894,2.336 -34.363,3.248c-18.692,1.14 -37.669,2.536 -56.93,4.189c-8.149,0.741 -12.566,1.254 -13.25,1.539c-1.083,1.767 -5.243,20.715 -12.48,56.845c-7.465,36.814 -11.939,60.492 -13.421,71.035l-3.077,19.319c-1.767,10.372 -4.189,26.186 -7.266,47.442c-4.844,33.11 -8.719,62.601 -11.625,88.473l-2.65,24.448c-1.653,14.76 -3.305,27.667 -4.958,38.723c-1.596,9.688 -2.821,18.92 -3.676,27.696c-1.026,10.087 -2.109,18.293 -3.248,24.619c-1.14,6.326 -2.194,9.859 -3.163,10.6c-0.627,0.399 -0.94,0.684 -0.94,0.855c0,0.171 0.242,0.256 0.727,0.256c0.484,0 0.869,0.214 1.154,0.641c0.285,0.427 0.427,0.926 0.427,1.496l0,0.342c0,0.741 -0.113,1.111 -0.338,1.111c-0.226,0 -0.565,-0.385 -1.015,-1.154c-0.451,-0.769 -0.79,-1.154 -1.016,-1.154c-0.056,0 -0.084,0.057 -0.084,0.171c0,0.798 -0.649,6.183 -1.946,16.156c-0.846,6.212 -1.495,9.802 -1.946,10.771c-0.394,0.798 -0.761,1.197 -1.101,1.197Zm9.327,-228.406c0.342,0 0.513,-0.655 0.513,-1.966c0,-0.684 -0.085,-1.339 -0.256,-1.966c-0.114,-0.342 -0.199,-0.513 -0.256,-0.513c-0.171,0 -0.285,0.684 -0.342,2.052c0,1.596 0.114,2.393 0.342,2.393Zm0.94,-6.069c0.855,-3.476 1.382,-5.941 1.581,-7.394c0.199,-1.453 0.299,-3.918 0.299,-7.394c-0.912,3.476 -1.453,5.941 -1.624,7.394c-0.171,1.453 -0.256,3.918 -0.256,7.394Zm2.564,-16.84c0.285,0 0.712,-1.567 1.282,-4.701c0.228,-1.197 0.342,-2.052 0.342,-2.564c0,-0.342 -0.057,-0.513 -0.171,-0.513c-0.114,0 -0.328,0.242 -0.641,0.727c-0.313,0.484 -0.584,1.168 -0.812,2.052c-0.228,0.883 -0.342,1.752 -0.342,2.607c0,1.596 0.114,2.393 0.342,2.393Zm7.522,-43.082c0.342,0 0.513,-0.285 0.513,-0.855l0,-0.598c0,-0.342 -0.071,-0.698 -0.214,-1.069c-0.142,-0.37 -0.271,-0.556 -0.385,-0.556c-0.171,0 -0.285,0.456 -0.342,1.368c0,1.14 0.142,1.71 0.427,1.71Zm1.453,-9.317c0.285,0 0.712,-1.083 1.282,-3.248c0.741,-3.02 1.111,-5.556 1.111,-7.608c0,-0.57 -0.057,-0.855 -0.171,-0.855c-0.342,0 -0.798,1.083 -1.368,3.248c-0.741,3.02 -1.111,5.528 -1.111,7.522c0,0.627 0.085,0.94 0.256,0.94Zm-9.232,-133.436c0.969,0 2.564,-0.342 4.787,-1.026c1.425,-0.342 2.137,-0.627 2.137,-0.855c0,-0.171 -0.769,-0.256 -2.308,-0.256l-1.368,0c-2.792,0 -4.189,0.541 -4.189,1.624c0,0.342 0.313,0.513 0.94,0.513Z" style="fill-rule: nonzero;" class="svg-elem-3"></path><path d="M395.949,396.974c-3.248,0 -6.354,-0.712 -9.317,-2.137c-2.906,-1.254 -5.2,-2.792 -6.881,-4.616c-1.681,-1.824 -3.263,-4.502 -4.744,-8.035c-2.336,-5.243 -3.505,-11.768 -3.505,-19.575c0,-18.464 6.525,-44.08 19.575,-76.848c11.454,-29.007 23.279,-47.357 35.475,-55.05c2.279,-1.539 4.06,-2.465 5.343,-2.778c1.282,-0.313 2.636,-0.47 4.06,-0.47c5.585,0 9.916,0.883 12.993,2.65c2.564,1.539 5.1,4.132 7.608,7.779c1.311,1.824 2.265,3.718 2.864,5.684c0.598,1.966 1.012,4.659 1.239,8.078c0.228,1.938 0.342,3.704 0.342,5.3c0,3.476 -1.012,7.864 -3.035,13.164c-2.023,5.3 -3.291,7.95 -3.804,7.95l-0.171,-0.085c-0.114,-0.285 -0.313,-0.427 -0.598,-0.427c-0.513,0 -1.311,0.57 -2.393,1.71c-1.026,1.311 -1.653,1.966 -1.881,1.966c-0.114,0 -0.171,-0.057 -0.171,-0.171c0,-0.228 0.171,-0.712 0.513,-1.453c1.197,-3.932 1.795,-6.383 1.795,-7.351c0,-0.342 -0.085,-0.513 -0.256,-0.513c-0.285,0 -0.741,0.285 -1.368,0.855c-0.627,0.57 -1.054,0.855 -1.282,0.855c-0.114,0 -0.171,-0.085 -0.171,-0.256c0,-0.456 0.228,-1.453 0.684,-2.992c0.741,-2.678 1.111,-4.474 1.111,-5.385c0,-0.399 -0.085,-0.627 -0.256,-0.684c-0.342,0 -0.969,1.254 -1.881,3.761c-0.912,2.906 -1.653,4.36 -2.223,4.36c-0.171,0 -0.256,-0.313 -0.256,-0.94c0,-1.083 0.256,-2.223 0.769,-3.419c0.285,-0.969 0.427,-2.052 0.427,-3.248c0,-1.311 -0.171,-2.792 -0.513,-4.445c-0.627,-3.134 -1.567,-5.471 -2.821,-7.009c-0.627,-0.684 -1.225,-1.026 -1.795,-1.026c-0.513,0 -1.368,0.57 -2.564,1.71c-4.16,3.932 -9.033,11.227 -14.617,21.883c-9.859,18.92 -17.353,39.72 -22.482,62.401c-2.279,10.144 -3.419,17.324 -3.419,21.541c0,3.476 0.328,5.428 0.983,5.855c0.655,0.427 1.154,0.641 1.496,0.641c1.254,0 3.106,-1.026 5.556,-3.077c3.134,-2.564 7.636,-6.867 13.506,-12.908c3.134,-3.305 6.411,-6.668 9.83,-10.087c7.066,-7.123 11.882,-12.11 14.446,-14.959c2.279,-2.564 4.217,-4.815 5.813,-6.753c3.59,-4.331 6.14,-7.223 7.651,-8.676c1.51,-1.453 3.661,-3.832 6.454,-7.138c2.45,-2.906 3.932,-4.36 4.445,-4.36c0.057,0 0.085,0.028 0.085,0.085c0,0.342 -0.712,1.453 -2.137,3.334l-0.342,0.513l0.085,0c0.171,0 1.396,-1.168 3.676,-3.505c5.756,-5.756 8.919,-8.634 9.488,-8.634c0.114,0 0.171,0.057 0.171,0.171c0,0.114 -1.368,2.336 -4.103,6.668c-1.254,1.995 -2.507,4.046 -3.761,6.155l-4.616,7.351c6.212,-6.782 9.517,-10.286 9.916,-10.514c0.399,-0.228 0.655,-0.342 0.769,-0.342c0.342,0 0.513,0.313 0.513,0.94c0,1.995 -0.712,4.303 -2.137,6.924c-0.912,1.596 -1.368,2.764 -1.368,3.505c0,0.513 0.199,0.812 0.598,0.898c0.399,0.085 0.598,0.385 0.598,0.898c0,1.254 -1.054,3.961 -3.163,8.121c-2.735,5.471 -4.587,8.548 -5.556,9.232c-0.798,0.513 -1.197,1.254 -1.197,2.223c0,0.114 0.057,0.171 0.171,0.171c0.285,0 0.826,-0.37 1.624,-1.111c1.197,-0.969 2.65,-2.422 4.36,-4.36c3.02,-3.305 4.815,-4.958 5.385,-4.958c0.171,0 0.256,0.142 0.256,0.427c0,4.901 -9.631,17.182 -28.893,36.842c-21.484,21.997 -36.301,34.078 -44.45,36.244c-3.761,0.969 -6.611,1.453 -8.548,1.453Zm-11.54,-5.984c0.114,0 0.171,-0.028 0.171,-0.085c0,-0.399 -0.484,-1.111 -1.453,-2.137c-1.254,-1.425 -2.764,-4.046 -4.53,-7.864c-1.767,-3.818 -2.792,-5.727 -3.077,-5.727l0,0.171c0,1.995 1.083,4.844 3.248,8.548c1.083,1.881 2.18,3.533 3.291,4.958c1.111,1.425 1.895,2.137 2.351,2.137Zm-8.719,-18.464c0.342,0 0.513,-1.026 0.513,-3.077c0,-0.855 -0.114,-1.581 -0.342,-2.18c-0.228,-0.598 -0.484,-0.898 -0.769,-0.898c-0.399,0 -0.598,0.456 -0.598,1.368c0,0.513 0.071,1.14 0.214,1.881c0.142,0.741 0.313,1.41 0.513,2.009c0.199,0.598 0.356,0.898 0.47,0.898Zm3.163,-35.731c0.228,0 0.57,-0.399 1.026,-1.197c0.741,-1.14 1.111,-2.564 1.111,-4.274c0,-1.254 -0.057,-1.881 -0.171,-1.881c-0.171,0 -0.484,0.627 -0.94,1.881c-0.798,1.596 -1.197,3.277 -1.197,5.043c0,0.285 0.057,0.427 0.171,0.427Z" style="fill-rule: nonzero;" class="svg-elem-4"></path><path d="M476.643,413.387c-1.767,0 -3.533,-0.313 -5.3,-0.94c-4.217,-1.311 -7.066,-3.462 -8.548,-6.454c-1.482,-2.992 -2.223,-6.796 -2.223,-11.412c0,-7.408 1.795,-19.575 5.385,-36.5c3.989,-18.635 10.186,-44.165 18.592,-76.591c8.406,-32.426 16.199,-60.749 23.379,-84.968c6.952,-23.023 14.603,-46.915 22.952,-71.676c8.349,-24.761 15.757,-45.761 22.225,-63c6.468,-17.239 10.357,-26.029 11.668,-26.371l0.085,0c0.285,0 0.684,-0.328 1.197,-0.983c0.513,-0.655 0.997,-1.581 1.453,-2.778c1.083,-2.336 1.852,-3.505 2.308,-3.505c0.171,0 0.285,0.199 0.342,0.598c0,0.627 -0.342,1.824 -1.026,3.59c-0.399,1.026 -0.826,2.251 -1.282,3.676c-0.456,1.425 -0.826,2.75 -1.111,3.975c-0.285,1.225 -0.427,2.123 -0.427,2.693c0,0.57 0.171,0.855 0.513,0.855c0.171,0 0.399,-0.057 0.684,-0.171c0.57,-0.228 0.969,-0.342 1.197,-0.342c0.285,0.057 0.427,0.228 0.427,0.513c0,0.912 -1.026,4.16 -3.077,9.745c-1.767,5.357 -2.65,8.52 -2.65,9.488l0,0.342c0.513,0 2.251,-4.217 5.214,-12.651c2.963,-7.978 4.644,-11.967 5.043,-11.967c0.057,0 0.085,0.114 0.085,0.342c0,0.57 -0.199,1.567 -0.598,2.992c-0.456,1.824 -1.14,3.875 -2.052,6.155c-5.015,13.449 -7.943,27.81 -8.785,43.082c-0.223,4.958 -0.783,9.317 -1.678,13.079c-0.783,3.191 -1.37,7.152 -1.762,11.882c-0.228,3.932 -1.168,8.833 -2.821,14.703c-1.482,5.357 -5.841,19.262 -13.079,41.715c-7.294,22.852 -11.91,38.039 -13.848,45.561c-2.223,8.548 -4.046,15.102 -5.471,19.661c-2.564,7.864 -4.801,15.301 -6.71,22.311c-1.909,7.009 -4.744,18.037 -8.505,33.081c-5.186,20.971 -8.349,33.423 -9.488,37.355c-0.57,1.71 -0.855,3.077 -0.855,4.103c0,0.228 0.028,0.399 0.085,0.513c0.513,-0.114 5.642,-8.662 15.387,-25.644c8.548,-14.931 16.655,-28.337 24.319,-40.219c7.665,-11.882 13.549,-20.188 17.652,-24.918c2.849,-3.134 6.069,-5.727 9.659,-7.779c3.59,-2.052 6.668,-3.077 9.232,-3.077c1.938,0 3.946,1.14 6.026,3.419c2.08,2.279 3.718,5.1 4.915,8.463c0.57,2.393 0.855,8.292 0.855,17.695c0,17.666 -0.513,31.201 -1.539,40.604c-0.57,4.445 -1.14,16.042 -1.71,34.791c-0.399,11.682 -0.598,19.974 -0.598,24.875c0,2.621 0.028,4.075 0.085,4.36l0.085,0c0.57,0 1.425,-0.826 2.564,-2.479c0.855,-1.254 3.134,-4.132 6.838,-8.634c3.248,-3.761 8.434,-11.056 15.558,-21.883c6.611,-9.916 10.343,-14.874 11.198,-14.874c0.057,0 0.1,0.028 0.128,0.085c0.028,0.057 0.071,0.085 0.128,0.085c0.684,0 2.579,-2.792 5.684,-8.377c3.106,-5.585 5.628,-9.859 7.565,-12.822c1.938,-2.963 3.077,-4.445 3.419,-4.445c0.057,0 0.085,0.057 0.085,0.171c-0.228,1.824 -3.761,9.346 -10.6,22.567c-2.792,5.414 -5.357,10.115 -7.693,14.104c-4.217,7.465 -6.326,11.34 -6.326,11.625c0,0.057 0.028,0.085 0.085,0.085c0.684,0 5.129,-6.611 13.335,-19.832c4.274,-7.18 6.525,-10.771 6.753,-10.771c0.171,0 0.256,0.655 0.256,1.966c0,2.678 -2.08,7.864 -6.24,15.558c-3.362,6.326 -5.043,10.144 -5.043,11.454c0,0.285 0.142,0.427 0.427,0.427c0.57,0 1.126,-0.427 1.667,-1.282c0.541,-0.855 0.869,-1.282 0.983,-1.282c0.057,0 0.085,0.057 0.085,0.171c0,0.627 -0.883,2.707 -2.65,6.24c-2.963,6.098 -7.081,13.25 -12.352,21.456c-5.271,8.206 -10.016,14.845 -14.233,19.917c-3.875,4.502 -5.813,6.924 -5.813,7.266l0.085,0c0.171,0 1.339,-1.054 3.505,-3.163c3.818,-3.704 9.118,-9.802 15.899,-18.293c8.092,-10.429 12.366,-15.643 12.822,-15.643c0.057,0 0.085,0.057 0.085,0.171c0,0.456 -0.769,2.08 -2.308,4.872c-5.699,10.486 -12.551,20.117 -20.558,28.893c-8.007,8.776 -14.745,14.047 -20.216,15.814c-1.938,0.399 -3.79,0.598 -5.556,0.598c-5.3,0 -9.26,-1.881 -11.882,-5.642c-2.279,-3.248 -3.69,-6.069 -4.231,-8.463c-0.541,-2.393 -0.812,-8.89 -0.812,-19.49c0,-21.769 0.541,-41.601 1.624,-59.495c0.798,-12.195 1.197,-20.174 1.197,-23.935c0,-1.311 -0.057,-2.052 -0.171,-2.223c-0.456,0 -2.878,3.619 -7.266,10.856c-4.388,7.237 -9.617,16.184 -15.686,26.841c-6.069,10.657 -11.868,21.085 -17.395,31.286c-10.201,19.034 -17.538,32.355 -22.011,39.962c-4.474,7.608 -7.394,11.811 -8.762,12.608c-3.248,2.45 -6.611,3.676 -10.087,3.676Zm-0.256,-3.761c3.362,0 6.668,-1.767 9.916,-5.3c1.425,-1.596 2.137,-2.678 2.137,-3.248c0,-0.057 -0.028,-0.085 -0.085,-0.085c-0.285,0 -1.282,0.883 -2.992,2.65c-2.906,3.191 -6.041,4.787 -9.403,4.787c-1.425,0 -2.906,-0.313 -4.445,-0.94c-3.533,-1.767 -5.442,-6.924 -5.727,-15.472l-0.171,-7.779c-0.399,1.71 -0.784,3.419 -1.154,5.129c-0.37,1.71 -0.556,3.334 -0.556,4.872c0,2.906 0.598,5.528 1.795,7.864c1.824,3.59 3.804,5.741 5.941,6.454c2.137,0.712 3.718,1.069 4.744,1.069Zm101.124,-7.522c0.399,0 0.997,-0.242 1.795,-0.727c0.798,-0.484 1.653,-1.126 2.564,-1.923c0.912,-0.798 1.852,-1.624 2.821,-2.479c-5.357,3.191 -8.035,4.844 -8.035,4.958c0.114,0.114 0.399,0.171 0.855,0.171Zm-86.25,-6.924c0.114,0 0.655,-0.57 1.624,-1.71c1.653,-2.052 2.479,-3.476 2.479,-4.274c0,-0.228 -0.057,-0.342 -0.171,-0.342c-0.57,0 -1.767,1.738 -3.59,5.214c-0.285,0.57 -0.427,0.912 -0.427,1.026c0,0.057 0.028,0.085 0.085,0.085Zm5.898,-9.146c0.342,-0.171 0.741,-0.798 1.197,-1.881c0.114,-0.399 0.171,-0.712 0.171,-0.94c0,-0.228 -0.085,-0.342 -0.256,-0.342c-0.114,0 -0.299,0.071 -0.556,0.214c-0.256,0.142 -0.499,0.399 -0.727,0.769c-0.228,0.37 -0.342,0.727 -0.342,1.069c0,0.741 0.142,1.111 0.427,1.111l0.085,0Zm-30.773,-6.326c0.342,0 0.513,-0.37 0.513,-1.111c0,-0.456 -0.078,-0.898 -0.235,-1.325c-0.157,-0.427 -0.287,-0.641 -0.391,-0.641c-0.157,0 -0.261,0.456 -0.314,1.368c0,1.14 0.142,1.71 0.427,1.71Zm54.11,-35.731c0.228,0 0.912,-0.912 2.052,-2.735c2.507,-3.875 3.761,-6.098 3.761,-6.668c0,-0.057 -0.028,-0.085 -0.085,-0.085c-0.342,0 -1.197,1.083 -2.564,3.248c-2.109,3.305 -3.163,5.357 -3.163,6.155l0,0.085Zm90.952,-12.053c0.228,0 1.51,-1.567 3.847,-4.701c2.223,-3.419 3.334,-5.528 3.334,-6.326c0,-0.171 -0.057,-0.256 -0.171,-0.256c-0.171,0 -0.484,0.271 -0.94,0.812c-0.456,0.541 -1.04,1.368 -1.752,2.479c-0.712,1.111 -1.425,2.279 -2.137,3.505c-0.712,1.225 -1.254,2.223 -1.624,2.992c-0.37,0.769 -0.556,1.239 -0.556,1.41l0,0.085Zm-82.575,-2.479c0.513,0 2.735,-3.391 6.668,-10.172c4.445,-7.693 6.981,-11.996 7.608,-12.908c0.855,-1.311 1.282,-2.166 1.282,-2.564c0,-0.114 -0.057,-0.171 -0.171,-0.171c-0.285,0 -2.963,4.06 -8.035,12.181c-5.072,8.121 -7.608,12.494 -7.608,13.121c0,0.342 0.085,0.513 0.256,0.513Zm35.389,-244.903c-0.513,0 -0.769,-0.199 -0.769,-0.598c0,-0.171 0.1,-0.413 0.299,-0.727c0.199,-0.313 0.413,-0.584 0.641,-0.812c0.228,-0.228 0.427,-0.342 0.598,-0.342c0.342,0 0.513,0.399 0.513,1.197c0,0.342 -0.128,0.641 -0.385,0.898c-0.256,0.256 -0.556,0.385 -0.898,0.385Z" style="fill-rule: nonzero;" class="svg-elem-5"></path><path d="M805.575,443.818c-0.742,0 -1.113,-3.904 -1.113,-11.711l0,-12.908c-1.099,7.408 -1.85,11.996 -2.255,13.762c-0.405,2.052 -0.81,3.077 -1.215,3.077c-0.752,0 -1.387,-1.311 -1.907,-3.932c-0.347,-1.368 -0.521,-3.049 -0.521,-5.043c0,-3.191 -0.556,-4.787 -1.667,-4.787c-1.111,0 -1.98,-1.581 -2.607,-4.744c-0.627,-3.163 -0.94,-7.337 -0.94,-12.523c0,-4.445 -0.342,-6.668 -1.026,-6.668l-0.085,0c-0.741,0.57 -1.111,2.336 -1.111,5.3c0,2.963 -0.263,5.371 -0.789,7.223c-0.526,1.852 -1.199,2.778 -2.018,2.778c-0.351,0 -0.526,-0.94 -0.526,-2.821c0,-14.19 0.541,-25.245 1.624,-33.167l0.769,-4.616l-12.737,0c-7.351,0 -14.674,-0.385 -21.969,-1.154c-7.294,-0.769 -13.278,-1.809 -17.951,-3.12c-6.155,-1.824 -11.056,-4.587 -14.703,-8.292c-3.647,-3.704 -5.471,-7.779 -5.471,-12.224c0,-5.528 1.994,-10.856 5.981,-15.985c3.987,-5.129 11.093,-10.956 21.318,-17.481c10.225,-6.525 24.48,-14.489 42.766,-23.892c12.589,-6.497 19.51,-10.115 20.763,-10.856c0.342,-0.513 1.624,-5.471 3.845,-14.874c4.727,-19.319 13.215,-45.618 25.463,-78.899c23.354,-62.572 46.538,-93.858 69.551,-93.858c3.076,0 5.569,0.337 7.477,1.01c1.908,0.672 2.862,1.345 2.862,2.017l0,0.505c0,0.728 0.855,1.546 2.564,2.452c1.767,0.798 2.65,1.453 2.65,1.966c0,0.171 -0.142,0.256 -0.427,0.256c-0.855,0 -2.194,-0.456 -4.018,-1.368c-2.223,-1.14 -3.861,-1.71 -4.915,-1.71l-1.923,0c-1.311,0 -1.966,0.366 -1.966,1.098c0,0.338 0.142,0.649 0.427,0.931c0.285,0.281 0.655,0.422 1.111,0.422c0.114,0 0.171,0.028 0.171,0.084c0,0.225 -1.567,0.591 -4.701,1.098c-3.875,0.62 -6.497,1.549 -7.864,2.789c-0.513,0.507 -0.769,0.817 -0.769,0.93c0,0.114 0.114,0.171 0.342,0.171c0.456,0 1.838,-0.427 4.146,-1.282c2.308,-0.855 4.203,-1.282 5.684,-1.282c0.969,0 1.909,0.237 2.821,0.711c1.197,0.534 1.795,0.92 1.795,1.157c0,0.059 -0.028,0.088 -0.085,0.088c-0.228,0.178 -1.482,0.267 -3.761,0.267c-3.248,0 -5.784,0.601 -7.608,1.802c-2.109,1.601 -3.875,4.002 -5.3,7.204c-0.513,1.144 -0.769,2.002 -0.769,2.574c0,0.286 0.043,0.5 0.128,0.644c0.085,0.142 0.128,0.357 0.128,0.642c0,1.029 -0.484,3.06 -1.453,6.091c-0.912,2.63 -1.368,4.603 -1.368,5.918c0,0.285 0.028,0.484 0.085,0.598l-1.282,3.419c-1.026,1.995 -2.365,4.417 -4.018,7.266c-5.756,9.574 -12.338,22.937 -19.746,40.091c-4.046,9.403 -9.574,25.017 -16.583,46.844c-6.725,20.686 -10.087,32.34 -10.087,34.962c0,0.171 0.028,0.313 0.085,0.427c1.824,0 20.458,-9.289 55.905,-27.867c37.042,-19.433 64.396,-34.249 82.062,-44.45c48.439,-27.981 85.025,-54.736 109.758,-80.267c20.572,-21.028 31.258,-40.205 32.055,-57.529l0.085,-3.334c0,-3.989 -0.598,-7.123 -1.795,-9.403c-1.539,-2.849 -4.616,-5.328 -9.232,-7.437c-9.517,-4.445 -22.482,-6.668 -38.894,-6.668c-24.391,0 -54.167,4.3 -89.328,12.901c-29.121,7.177 -59.837,16.832 -92.149,28.965c-32.312,12.132 -64.396,26.315 -96.252,42.548c-15.045,7.633 -26.1,13.67 -33.167,18.113c-10.486,6.551 -21.883,14.725 -34.192,24.522c-5.3,4.157 -8.833,7.176 -10.6,9.056c-3.191,3.531 -5.884,7.063 -8.078,10.594c-2.194,3.531 -3.291,6.066 -3.291,7.605c0,2.905 3.134,5.667 9.403,8.288c6.269,2.62 14.703,4.841 25.302,6.664c10.6,1.823 22.539,3.019 35.817,3.589c12.024,0.399 18.037,0.911 18.037,1.537l-0.085,0.171c0,0.285 1.111,0.427 3.334,0.427l8.89,0c1.767,0 2.65,0.142 2.65,0.427c0,0.456 -1.539,0.855 -4.616,1.197c-1.995,0.285 -4.132,0.427 -6.411,0.427c-4.331,0 -8.463,0.324 -12.395,0.972c-2.849,0.472 -4.274,0.826 -4.274,1.062c0,0.059 0.299,0.118 0.898,0.176c0.598,0.059 1.168,0.232 1.71,0.521c0.541,0.288 0.926,0.602 1.154,0.944l0.085,0.171c0,0.456 -2.194,0.684 -6.582,0.684c-3.02,0 -7.066,-0.114 -12.138,-0.342c-4.445,-0.171 -8.976,-0.256 -13.591,-0.256c-3.362,0 -5.043,0.114 -5.043,0.342c0.855,0.57 9.061,1.197 24.619,1.881l23.678,0.94l-30.089,-0.427c-15.558,-0.171 -26.87,-0.484 -33.936,-0.94c-7.066,-0.456 -12.452,-1.197 -16.156,-2.223c-2.336,-0.627 -4.246,-0.94 -5.727,-0.94c-0.399,0 -0.727,0.043 -0.983,0.128c-0.256,0.085 -0.556,0.128 -0.898,0.128c-1.026,0 -2.052,-0.228 -3.077,-0.684c-0.741,-0.399 -1.254,-0.598 -1.539,-0.598c-0.114,0 -0.171,0.057 -0.171,0.171c0,0.114 0.114,0.342 0.342,0.684c0.228,0.342 0.342,0.57 0.342,0.684c0,0.114 -0.085,0.171 -0.256,0.171c-0.285,0 -0.883,-0.256 -1.795,-0.769c-1.824,-0.969 -3.106,-2.251 -3.847,-3.847c-0.912,-1.596 -1.866,-2.393 -2.864,-2.393c-0.997,0 -2.251,-0.741 -3.761,-2.223c-1.51,-1.482 -2.921,-3.277 -4.231,-5.385c-2.393,-3.704 -3.59,-7.807 -3.59,-12.309c0,-6.782 1.938,-13.392 5.813,-19.832c1.767,-2.849 2.65,-4.53 2.65,-5.043c0,-0.057 -0.028,-0.085 -0.085,-0.085l-0.085,0c-0.228,0.114 -0.427,0.171 -0.598,0.171c-0.456,0 -0.684,-0.228 -0.684,-0.684c0,-0.741 1.909,-3.092 5.727,-7.052c3.818,-3.961 8.106,-8.135 12.865,-12.523c4.758,-4.388 8.819,-7.836 12.181,-10.343c29.178,-21.598 72.26,-44.393 129.247,-68.385l6.155,-2.564c8.32,-3.533 14.703,-6.212 19.148,-8.035c4.445,-1.824 8.876,-3.476 13.292,-4.958c4.417,-1.482 10.671,-3.505 18.763,-6.069l6.069,-1.881c12.423,-3.989 22.282,-7.095 29.576,-9.317c7.294,-2.223 13.777,-4.075 19.447,-5.556c5.67,-1.482 12.295,-3.077 19.874,-4.787c36.13,-8.434 66.02,-12.651 89.67,-12.651c8.32,0 15.842,0.527 22.567,1.581c6.155,1.054 10.486,1.581 12.993,1.581c2.279,0 3.419,0.27 3.419,0.811c0,0.54 1.852,1.452 5.556,2.735c3.704,1.282 7.836,3.405 12.395,6.37c8.605,5.814 14.09,12.299 16.455,19.452c2.365,7.154 3.547,13.495 3.547,19.025c0,5.016 -0.684,10.288 -2.052,15.818c-4.73,20.293 -16.612,40.129 -35.646,59.51c-28.152,29.755 -71.519,61.107 -130.102,94.053c-15.045,8.494 -35.674,19.581 -61.888,33.262c-23.194,12.141 -34.791,18.582 -34.791,19.324c0,0.456 -0.199,0.684 -0.598,0.684c-0.171,0 -0.37,-0.085 -0.598,-0.256l-0.085,0c-1.539,0 -10.115,3.905 -25.73,11.714c-11.682,5.871 -18.834,9.634 -21.456,11.286c-1.596,1.083 -2.65,2.023 -3.163,2.822c-0.741,1.14 -1.852,5.272 -3.334,12.397c-0.855,3.876 -1.567,7.353 -2.137,10.431c-0.228,1.654 -0.912,5.387 -2.052,11.201c-0.627,3.648 -0.94,6.498 -0.94,8.551c0,0.627 0.028,1.083 0.085,1.368c0.228,0.798 2.479,1.197 6.753,1.197c3.875,0 8.748,-0.085 14.617,-0.256c8.206,-0.285 16.726,-0.427 25.559,-0.427c18.122,0 32.34,0.37 42.655,1.111c14.703,1.197 26.485,2.393 35.346,3.59c8.862,1.197 13.292,2.194 13.292,2.992l0,0.171c0,0.285 0.427,0.427 1.282,0.427c0.57,0 3.22,-0.256 3.676,-0.256c0.969,0 1.453,0.228 1.453,0.684l0,0.085c0,0.798 4.274,2.479 12.822,5.043c8.89,2.564 16.555,5.328 22.994,8.292c6.041,2.792 11.611,5.884 16.712,9.275c5.1,3.391 8.049,5.912 8.847,7.565c0.399,1.425 0.94,2.137 1.624,2.137c0.684,0 2.393,1.966 5.129,5.898l3.847,5.813l-5.129,-5.898c-13.848,-14.817 -33.851,-25.131 -60.008,-30.944c-9.061,-1.881 -15.102,-2.821 -18.122,-2.821c-0.969,0 -1.453,0.142 -1.453,0.427c0,0.171 0.427,0.285 1.282,0.342c0.855,0.057 2.849,0.427 5.984,1.111c3.134,0.684 6.696,1.539 10.685,2.564c8.035,1.995 15.444,4.303 22.225,6.924c6.782,2.621 11.397,4.929 13.848,6.924l2.735,2.393c-1.026,-0.513 -2.009,-0.997 -2.949,-1.453c-0.94,-0.456 -1.938,-0.855 -2.992,-1.197c-1.054,-0.342 -1.952,-0.556 -2.693,-0.641c-0.741,-0.085 -2.393,-0.513 -4.958,-1.282c-2.564,-0.769 -5.428,-1.681 -8.591,-2.735c-3.163,-1.054 -6.596,-2.066 -10.3,-3.035c-3.704,-0.969 -6.81,-1.638 -9.317,-2.009c-2.507,-0.37 -4.915,-0.741 -7.223,-1.111c-2.308,-0.37 -4.046,-0.67 -5.214,-0.898c-1.168,-0.228 -2.379,-0.427 -3.633,-0.598l6.155,3.932l-4.274,-0.684c-3.59,-0.456 -11.796,-0.841 -24.619,-1.154c-12.822,-0.313 -27.297,-0.47 -43.424,-0.47c-14.133,0 -21.199,0.342 -21.199,1.026c0,0.456 8.206,0.912 24.619,1.368c22.681,0.741 34.021,1.396 34.021,1.966c0,0.684 -16.122,1.282 -48.365,1.795c-35.896,0.684 -54.814,1.197 -56.754,1.539c-0.685,0.399 -1.484,2.109 -2.397,5.129c-0.913,3.02 -1.755,6.639 -2.526,10.856c-0.77,4.217 -1.326,8.32 -1.668,12.309c-0.457,6.041 -1.056,11.141 -1.798,15.301c-0.742,4.16 -1.483,6.725 -2.225,7.693c-0.343,0.513 -0.7,1.724 -1.071,3.633c-0.37,1.909 -0.641,4.06 -0.812,6.454c-0.514,5.414 -1.17,8.662 -1.969,9.745c-0.115,0.171 -0.229,0.256 -0.343,0.256Zm45.304,-77.189c1.596,0 2.393,-0.085 2.393,-0.256c0,-0.342 -0.655,-0.513 -1.966,-0.513c-1.653,0 -2.479,0.142 -2.479,0.427c0,0.171 0.684,0.285 2.052,0.342Zm97.79,-9.745c1.197,0 1.795,-0.114 1.795,-0.342c0,-0.342 -0.598,-0.513 -1.795,-0.513c-1.197,0 -1.795,0.171 -1.795,0.513c0,0.228 0.598,0.342 1.795,0.342Zm-159.251,-11.369c2.166,0 3.69,-0.171 4.573,-0.514c0.883,-0.343 1.41,-1.028 1.581,-2.057c0.684,-2.8 1.71,-8.372 3.077,-16.716c1.083,-6.799 1.624,-10.799 1.624,-11.999c0,-0.057 -0.014,-0.114 -0.043,-0.171c-0.028,-0.057 -0.071,-0.085 -0.128,-0.085c-0.513,0 -1.339,0.484 -2.479,1.453c-1.71,1.425 -6.326,4.018 -13.848,7.779c-7.864,4.046 -12.794,6.725 -14.788,8.035c-2.336,1.596 -5.699,3.818 -10.087,6.668c-4.388,2.849 -6.582,4.644 -6.582,5.385l0,0.085c0.57,0.57 5.813,0.997 15.729,1.282c9.859,0.114 14.959,0.285 15.301,0.513c0.342,0.228 2.365,0.342 6.069,0.342Zm23.165,-68.812c0.684,0 1.225,-0.484 1.624,-1.453c0.228,-0.57 0.342,-1.282 0.342,-2.137c0,-0.57 -0.085,-0.855 -0.256,-0.855c-0.171,0 -0.484,0.37 -0.94,1.111c-0.798,1.254 -1.197,2.194 -1.197,2.821c0,0.342 0.142,0.513 0.427,0.513Zm9.574,-32.226c0.342,0 0.94,-0.983 1.795,-2.949c0.855,-1.966 1.282,-3.433 1.282,-4.402c0,-0.285 -0.085,-0.427 -0.256,-0.427c-0.399,0 -0.983,0.912 -1.752,2.735c-0.769,1.824 -1.154,3.305 -1.154,4.445c0,0.399 0.028,0.598 0.085,0.598Zm137.796,-39.236c0.456,0 1.225,-0.256 2.308,-0.769c1.653,-0.969 2.479,-1.624 2.479,-1.966c0,-0.114 -0.085,-0.171 -0.256,-0.171c-0.342,0 -1.083,0.285 -2.223,0.855c-1.653,0.969 -2.479,1.624 -2.479,1.966c0,0.057 0.057,0.085 0.171,0.085Zm8.548,-4.787c1.368,0 11.284,-5.556 29.747,-16.669c9.46,-5.756 14.19,-8.976 14.19,-9.659c0,-0.114 -0.028,-0.171 -0.085,-0.171c-0.285,0 -1.054,0.399 -2.308,1.197c-4.559,2.849 -12.053,7.351 -22.482,13.506l-12.053,7.009c-4.73,2.678 -7.095,4.246 -7.095,4.701c0,0.057 0.028,0.085 0.085,0.085Zm51.973,-30.688c0.456,-0.114 1.966,-1.026 4.53,-2.735c8.206,-5.414 12.309,-8.377 12.309,-8.89c0,-0.114 -0.057,-0.199 -0.171,-0.256c-0.171,0 -0.442,0.1 -0.812,0.299c-0.37,0.199 -0.94,0.541 -1.71,1.026c-0.769,0.484 -1.752,1.126 -2.949,1.923c-1.197,0.798 -2.707,1.795 -4.53,2.992c-1.995,1.368 -3.661,2.579 -5.001,3.633c-1.339,1.054 -2.009,1.638 -2.009,1.752c0,0.171 0.085,0.256 0.256,0.256l0.085,0Zm68.727,-52.742c0.57,0 1.738,-1.026 3.505,-3.077c1.596,-1.71 2.393,-2.707 2.393,-2.992c0,-0.057 -0.028,-0.085 -0.085,-0.085c-0.399,0 -1.567,1.026 -3.505,3.077c-1.596,1.71 -2.393,2.707 -2.393,2.992c0,0.057 0.028,0.085 0.085,0.085Zm8.121,-8.463c0.627,0 3.676,-3.533 9.146,-10.6c1.311,-1.653 1.966,-2.564 1.966,-2.735c-0.171,0 -1.482,1.339 -3.932,4.018c-3.647,3.761 -5.984,6.611 -7.009,8.548c-0.114,0.285 -0.171,0.484 -0.171,0.598l0,0.171Zm-181.989,-12.566c0.798,0 1.197,-0.114 1.197,-0.342c0,-0.399 -0.399,-0.598 -1.197,-0.598c-0.399,0 -0.812,0.085 -1.239,0.256c-0.427,0.171 -0.641,0.313 -0.641,0.427c0,0.171 0.627,0.256 1.881,0.256Zm200.539,-12.138c0.342,0 0.997,-0.883 1.966,-2.65c2.109,-3.818 4.075,-8.634 5.898,-14.446c1.311,-4.331 1.966,-7.75 1.966,-10.258c0,-0.228 -0.028,-0.342 -0.085,-0.342c-0.114,0 -0.456,1.026 -1.026,3.077c-0.855,2.735 -1.881,5.784 -3.077,9.146c-1.197,3.362 -2.336,6.368 -3.419,9.018c-1.083,2.65 -1.838,4.26 -2.265,4.83c-0.427,0.57 -0.641,0.969 -0.641,1.197c0,0.285 0.228,0.427 0.684,0.427Zm10.087,-36.928c0.798,0 1.197,-0.199 1.197,-0.598c0,-0.114 -0.114,-0.299 -0.342,-0.556c-0.228,-0.256 -0.484,-0.484 -0.769,-0.684c-0.285,-0.199 -0.513,-0.299 -0.684,-0.299c-0.456,0 -0.684,0.256 -0.684,0.769c0,0.912 0.427,1.368 1.282,1.368Zm-315.853,383.725c-0.228,0 -0.342,-0.37 -0.342,-1.111c0,-1.254 0.085,-1.881 0.256,-1.881c0.114,0 0.256,0.214 0.427,0.641c0.171,0.427 0.256,0.841 0.256,1.239c0,0.741 -0.199,1.111 -0.598,1.111Zm168.141,-75.052c-1.197,0 -1.795,-0.114 -1.795,-0.342c0,-0.342 0.598,-0.513 1.795,-0.513c1.197,0 1.795,0.171 1.795,0.513c0,0.228 -0.598,0.342 -1.795,0.342Zm-265.248,-146.258c-1.197,0 -1.795,-0.399 -1.795,-1.197c0,-0.456 0.285,-0.684 0.855,-0.684c0.285,0 0.641,0.085 1.069,0.256c0.427,0.171 0.826,0.37 1.197,0.598c0.37,0.228 0.556,0.427 0.556,0.598c0,0.285 -0.627,0.427 -1.881,0.427Zm430.91,-185.836c-0.114,0 -0.826,-0.712 -2.137,-2.137c-0.741,-0.855 -1.111,-1.368 -1.111,-1.539l0.085,0c0.171,0 0.684,0.342 1.539,1.026c1.425,1.197 2.137,1.995 2.137,2.393c0,0.171 -0.171,0.256 -0.513,0.256Z" style="fill-rule: nonzero;" class="svg-elem-6"></path><path d="M1076.378,399.026c-2.507,0 -5.015,-0.228 -7.522,-0.684c-10.429,-2.393 -18.293,-8.249 -23.593,-17.566c-5.3,-9.317 -7.95,-20.159 -7.95,-32.526c0,-14.133 3.59,-28.38 10.771,-42.741c3.02,-5.642 6.867,-11.113 11.54,-16.412c4.673,-5.3 9.346,-9.517 14.019,-12.651c2.507,-1.539 5.385,-2.992 8.634,-4.36c5.072,-2.052 8.662,-3.077 10.771,-3.077c0.684,0 1.026,0.171 1.026,0.513l-0.085,0.598c0,0.513 0.484,0.769 1.453,0.769c0.456,0 1.995,-0.199 4.616,-0.598c-3.476,1.596 -5.3,2.536 -5.471,2.821c0,0.342 0.484,0.513 1.453,0.513c1.254,0 3.305,-0.285 6.155,-0.855c1.254,0.57 2.507,1.026 3.761,1.368c5.813,1.71 9.089,2.564 9.83,2.564c0.741,0 1.111,-0.228 1.111,-0.684c0,-1.026 0.171,-1.539 0.513,-1.539c0.171,0 0.342,0.085 0.513,0.256c0.912,0.456 2.963,1.111 6.155,1.966c8.719,2.336 14.332,3.505 16.84,3.505c1.881,0 3.505,0.655 4.872,1.966c1.368,1.311 3.875,1.966 7.522,1.966c5.585,0 8.377,0.288 8.377,0.863c0,0.69 -3.106,1.351 -9.317,1.983c-5.414,0.517 -8.121,0.92 -8.121,1.207c0,0.115 0.427,0.201 1.282,0.259c6.497,0.517 9.745,1.293 9.745,2.328c0,0.747 -0.855,1.466 -2.564,2.156c-1.482,0.575 -3.248,0.863 -5.3,0.863c-2.849,0 -4.274,0.342 -4.274,1.026l0,0.598c0,0.762 -0.905,1.436 -2.715,2.022c-2.149,0.703 -5.063,1.055 -8.739,1.055c-1.767,0.175 -2.65,0.524 -2.65,1.047c0,0.873 1.453,1.658 4.36,2.356l4.53,0.785l-3.847,1.624c-1.71,0.684 -2.707,1.254 -2.992,1.71c-0.285,0.456 -0.427,0.94 -0.427,1.453c0,0.684 0.142,1.539 0.427,2.564c0.627,3.077 0.94,7.209 0.94,12.395c0,11.284 -0.769,20.202 -2.308,26.756c-2.564,9.346 -6.254,17.737 -11.07,25.174c-4.815,7.437 -10.243,13.064 -16.284,16.883c-8.662,5.186 -17.324,7.779 -25.986,7.779Zm6.753,-4.445c0.855,0 1.282,-0.142 1.282,-0.427c0,-0.342 -0.37,-0.513 -1.111,-0.513c-0.57,0 -1.04,0.071 -1.41,0.214c-0.37,0.142 -0.556,0.271 -0.556,0.385c0,0.228 0.598,0.342 1.795,0.342Zm4.36,-1.111c1.767,-0.171 4.417,-1.168 7.95,-2.992c3.989,-2.052 6.952,-3.932 8.89,-5.642c1.425,-1.197 2.137,-1.852 2.137,-1.966c-0.171,0 -1.254,0.684 -3.248,2.052c-2.906,1.938 -6.582,3.818 -11.027,5.642c-3.362,1.368 -5.043,2.279 -5.043,2.735c0,0.114 0.114,0.171 0.342,0.171Zm-12.224,-21.199c8.947,0 16.298,-4.758 22.054,-14.275c5.414,-9.004 8.121,-19.775 8.121,-32.312c0,-8.491 -0.997,-15.216 -2.992,-20.174c-0.912,-2.166 -1.368,-3.619 -1.368,-4.36c0,-0.798 0.798,-1.881 2.393,-3.248c2.166,-1.767 3.761,-2.878 4.787,-3.334c0.342,-0.114 0.513,-0.313 0.513,-0.598c0,-0.741 -2.166,-2.194 -6.497,-4.36c-2.223,-1.083 -5.015,-1.624 -8.377,-1.624c-3.305,0 -7.152,0.513 -11.54,1.539c-0.912,1.938 -1.368,3.077 -1.368,3.419c0,0.399 0.114,0.598 0.342,0.598c0.285,0 0.655,-0.142 1.111,-0.427l0.427,-0.085c0,0.114 -0.427,0.541 -1.282,1.282c-1.083,0.855 -1.624,1.453 -1.624,1.795c0,0.057 0.071,0.085 0.214,0.085c0.142,0 0.214,0.171 0.214,0.513c0,0.456 -0.256,1.168 -0.769,2.137c-0.855,1.596 -1.425,3.377 -1.71,5.343c-0.285,1.966 -1.596,4.915 -3.932,8.847c-5.357,8.947 -8.477,16.64 -9.36,23.08c-0.883,6.44 -1.325,10.942 -1.325,13.506c0,8.662 1.824,15.187 5.471,19.575c0.741,0.969 1.425,1.653 2.052,2.052c1.197,0.684 2.678,1.026 4.445,1.026Zm42.997,-3.676c0.171,0 0.627,-0.513 1.368,-1.539c1.311,-1.596 1.966,-2.792 1.966,-3.59c0,-0.456 -0.085,-0.684 -0.256,-0.684c-0.342,0 -1.054,1.197 -2.137,3.59c-0.627,1.254 -0.94,1.995 -0.94,2.223Zm4.189,-7.693c0.171,0 0.627,-0.741 1.368,-2.223c1.539,-3.191 2.308,-5.727 2.308,-7.608c0,-0.228 -0.057,-0.342 -0.171,-0.342c-0.342,0 -1.14,1.795 -2.393,5.385c-0.798,2.336 -1.197,3.847 -1.197,4.53c0,0.171 0.028,0.256 0.085,0.256Z" style="fill-rule: nonzero;" class="svg-elem-7"></path><path d="M1230.33,399.539c-2.507,0 -5.015,-0.427 -7.522,-1.282c-6.611,-2.963 -11.654,-9.26 -15.13,-18.891c-0.342,-1.254 -0.698,-4.53 -1.069,-9.83c-0.37,-5.3 -0.926,-19.262 -1.667,-41.886l-5.984,11.027c-7.864,14.532 -14.332,25.231 -19.404,32.098c-5.072,6.867 -9.716,11.184 -13.933,12.95c-3.419,1.482 -6.554,2.223 -9.403,2.223c-6.212,0 -11.084,-3.448 -14.617,-10.343c-1.596,-3.191 -2.393,-6.668 -2.393,-10.429l0,-1.539c0,-12.993 1.396,-25.616 4.189,-37.868c3.932,-16.697 7.779,-31.101 11.54,-43.211c3.761,-12.11 6.269,-18.336 7.522,-18.678l0.342,0.085c0.627,0 0.94,-0.513 0.94,-1.539c0,-0.456 0.142,-0.94 0.427,-1.453c0.342,-0.798 0.769,-1.197 1.282,-1.197c0.228,0 0.342,0.228 0.342,0.684c0,0.399 -0.114,1.026 -0.342,1.881c-0.57,2.336 -0.855,4.103 -0.855,5.3c0,1.254 0.313,1.881 0.94,1.881l1.026,-0.171c0.513,0 0.769,0.427 0.769,1.282c0,0.513 -0.114,1.225 -0.342,2.137c-0.912,4.274 -1.368,6.895 -1.368,7.864c0,0.285 0.057,0.427 0.171,0.427c0.228,0 0.94,-1.71 2.137,-5.129c1.539,-4.388 2.45,-6.611 2.735,-6.668c0.285,0 0.427,0.142 0.427,0.427c0,0.798 -0.427,2.792 -1.282,5.984c-0.513,1.938 -0.926,4.716 -1.239,8.334c-0.313,3.619 -0.47,7.309 -0.47,11.07c0,2.393 0.181,3.79 0.544,4.189c0.181,0.171 0.392,1.026 0.633,2.564c0.241,1.539 0.362,3.405 0.362,5.599c0,2.194 0.155,4.16 0.465,5.898c0.31,1.738 0.666,2.835 1.069,3.291c0.402,0.456 0.604,1.282 0.604,2.479c0,1.197 -0.228,2.821 -0.684,4.872c-0.57,2.735 -0.855,4.559 -0.855,5.471c0,0.855 0.342,1.282 1.026,1.282c0.855,0 1.681,-0.342 2.479,-1.026c0.399,-0.399 0.598,-0.741 0.598,-1.026c0,-0.114 -0.028,-0.242 -0.085,-0.385c-0.057,-0.142 -0.085,-0.299 -0.085,-0.47c0,-0.627 0.37,-1.197 1.111,-1.71c1.026,-0.684 4.16,-6.126 9.403,-16.327c7.351,-14.874 13.349,-25.744 17.994,-32.611c4.644,-6.867 9.246,-11.64 13.805,-14.318c3.419,-2.223 6.269,-3.334 8.548,-3.334c3.362,0 6.041,3.02 8.035,9.061c1.368,3.818 2.166,7.209 2.393,10.172c0.228,2.963 0.342,5.3 0.342,7.009c0,3.533 -0.199,7.636 -0.598,12.309c-2.166,25.758 -3.248,43.766 -3.248,54.024c0,10.258 0.969,15.387 2.906,15.387c0.798,0 2.223,-1.596 4.274,-4.787c4.673,-7.123 7.807,-12.879 9.403,-17.267c5.927,-16.07 10.357,-28.422 13.292,-37.056c2.935,-8.634 5.229,-16.17 6.881,-22.61c4.787,-18.008 7.608,-27.012 8.463,-27.012l0.171,0c0.627,0 1.995,-3.448 4.103,-10.343c0.912,-3.02 1.681,-5.941 2.308,-8.762c0.627,-2.821 1.539,-5.086 2.735,-6.796c0.741,-1.14 1.225,-1.71 1.453,-1.71c0.057,0 0.085,0.085 0.085,0.256c0,0.399 -0.142,1.083 -0.427,2.052c-1.881,8.833 -3.448,17.267 -4.701,25.302c-0.456,3.248 -0.684,5.328 -0.684,6.24c0.57,0 1.681,-3.562 3.334,-10.685c1.71,-6.668 2.963,-10.001 3.761,-10.001c0.171,0 0.37,0.142 0.598,0.427c0.57,0.57 0.855,1.225 0.855,1.966c0,2.279 -0.228,4.787 -0.684,7.522c-0.456,2.735 -0.684,4.872 -0.684,6.411c0,1.197 0.328,1.966 0.983,2.308c0.655,0.342 1.026,0.912 1.111,1.71c0.085,0.798 0.128,1.453 0.128,1.966c0,1.767 -0.684,7.693 -2.052,17.78c-0.513,3.419 -1.026,6.297 -1.539,8.634c-0.399,1.824 -0.598,3.02 -0.598,3.59c0,0.285 0.057,0.427 0.171,0.427c0.627,0 2.251,-4.16 4.872,-12.48c1.767,-5.699 2.963,-8.548 3.59,-8.548c0.285,0 0.427,0.456 0.427,1.368c0,1.995 -0.57,5.898 -1.71,11.711c-4.046,19.433 -9.802,38.296 -17.267,56.588c-7.465,18.293 -14.902,31.713 -22.311,40.262c-8.491,9.061 -16.783,13.591 -24.875,13.591Zm-21.627,-56.503c0.285,0 0.427,-1.653 0.427,-4.958c0,-3.305 -0.142,-4.958 -0.427,-4.958c-0.171,0 -0.256,1.653 -0.256,4.958c0,3.305 0.085,4.958 0.256,4.958Zm2.223,-30.26c1.197,0 1.795,-0.741 1.795,-2.223c0,-0.456 -0.085,-0.997 -0.256,-1.624c-0.399,-1.026 -0.712,-1.539 -0.94,-1.539c-0.342,0 -0.912,0.57 -1.71,1.71c-0.684,0.912 -1.026,1.653 -1.026,2.223c0,0.456 0.256,0.812 0.769,1.069c0.513,0.256 0.969,0.385 1.368,0.385Zm67.787,-61.034c-0.285,0 -0.427,-0.598 -0.427,-1.795c0.053,-0.855 0.157,-1.282 0.314,-1.282c0.104,0 0.235,0.214 0.391,0.641c0.157,0.427 0.235,0.841 0.235,1.239c0,0.798 -0.171,1.197 -0.513,1.197Z" style="fill-rule: nonzero;" class="svg-elem-8"></path><path d="M1314.614,411.335c-0.399,0 -0.598,-2.564 -0.598,-7.693l0,-5.556c0,-5.129 -0.285,-7.693 -0.855,-7.693c-0.342,0 -0.627,0.47 -0.855,1.41c-0.228,0.94 -0.342,2.094 -0.342,3.462c0,5.186 -0.627,7.779 -1.881,7.779c-0.342,0 -0.741,-0.226 -1.197,-0.679c-0.456,-0.453 -0.755,-0.864 -0.898,-1.231c-0.142,-0.369 -0.214,-0.638 -0.214,-0.808c0,-0.17 0.028,-0.312 0.085,-0.425c0.171,-0.339 0.256,-0.905 0.256,-1.698c0,-0.906 -0.171,-2.294 -0.513,-4.162c-0.627,-2.775 -1.225,-4.162 -1.795,-4.162l-0.342,0c-0.57,0 -1.083,-1.225 -1.539,-3.676c-0.513,-2.735 -0.841,-6.582 -0.983,-11.54c-0.142,-4.958 -0.47,-7.494 -0.983,-7.608c-0.513,0 -1.026,2.052 -1.539,6.155c-0.399,3.818 -1.083,6.582 -2.052,8.292c-0.171,0.342 -0.313,0.513 -0.427,0.513c-0.399,0 -0.598,-1.938 -0.598,-5.813c0,-18.06 3.79,-47.03 11.369,-86.91c6.383,-33.899 12.993,-62.527 19.832,-85.884c12.024,-39.767 23.45,-70.959 34.278,-93.576c7.009,-14.699 14.304,-28.088 21.883,-40.165c3.077,-4.843 4.958,-7.265 5.642,-7.265l0.513,0c0.513,0 1.225,-0.313 2.137,-0.94c0.627,-0.57 1.026,-0.855 1.197,-0.855c0.114,0 0.171,0.085 0.171,0.256c0,0.285 -0.142,0.798 -0.427,1.539c-0.741,1.824 -1.111,3.077 -1.111,3.761c0,0.627 0.285,0.94 0.855,0.94c0.171,0 0.37,-0.028 0.598,-0.085c0.228,-0.057 0.456,-0.085 0.684,-0.085c0.399,0 0.598,0.171 0.598,0.513c0,0.627 -0.814,2.479 -2.443,5.556c-1.05,1.995 -1.575,3.334 -1.575,4.018c0,0.171 0.028,0.256 0.085,0.256c0.627,0 2.023,-1.938 4.189,-5.813c1.539,-2.963 2.479,-4.445 2.821,-4.445c0.114,0 0.171,0.142 0.171,0.427c0,0.912 -0.798,3.22 -2.393,6.924c-1.254,2.678 -2.052,5.186 -2.393,7.522c-0.342,2.336 -0.513,5.471 -0.513,9.403l0,14.19c-9.79,21.541 -15.852,35.332 -18.186,41.373l-6.745,17.695c-6.148,16.697 -12.85,39.022 -20.108,66.974c-7.257,27.952 -11.853,49.308 -13.788,64.068c-0.513,4.388 -0.926,6.881 -1.239,7.48c-0.313,0.598 -1.266,6.368 -2.86,17.31c-1.821,12.48 -2.931,20.572 -3.33,24.277c-0.398,4.217 -0.995,7.351 -1.792,9.403c-0.74,2.45 -1.366,6.924 -1.879,13.421c-0.569,7.237 -1.195,12.081 -1.878,14.532c-0.797,2.792 -1.195,5.585 -1.195,8.377c0,2.109 -0.171,3.163 -0.513,3.163c-0.171,0 -0.356,-0.171 -0.556,-0.513c-0.199,-0.342 -0.385,-0.513 -0.556,-0.513c-0.513,0 -0.969,1.596 -1.368,4.787c-0.456,3.761 -0.855,6.653 -1.197,8.676c-0.342,2.023 -0.641,3.419 -0.898,4.189c-0.256,0.769 -0.527,1.154 -0.812,1.154Zm2.65,-149.506c0.399,0 0.912,-1.624 1.539,-4.872c0.171,-1.026 0.256,-1.881 0.256,-2.564c0,-0.855 -0.057,-1.282 -0.171,-1.282c-0.171,0 -0.427,0.627 -0.769,1.881c-0.684,2.166 -1.026,4.018 -1.026,5.556c0,0.855 0.057,1.282 0.171,1.282Zm2.223,-11.967c0.171,0 0.513,-0.342 1.026,-1.026c0.798,-1.197 1.197,-2.223 1.197,-3.077c0,-0.285 -0.057,-0.427 -0.171,-0.427c-0.171,0 -0.513,0.37 -1.026,1.111c-0.798,1.197 -1.197,2.223 -1.197,3.077c0,0.228 0.057,0.342 0.171,0.342Zm9.745,-31.799c0.798,0 1.197,-0.513 1.197,-1.539c0,-1.026 0.256,-2.564 0.769,-4.616c0.228,-1.026 0.342,-1.71 0.342,-2.052c0,-0.285 -0.028,-0.427 -0.085,-0.427c-0.513,0 -1.254,1.596 -2.223,4.787c-0.342,1.254 -0.513,2.223 -0.513,2.906c0,0.627 0.171,0.94 0.513,0.94Z" style="fill-rule: nonzero;" class="svg-elem-9"></path><path d="M1365.133,399.795c-5.186,0 -9.688,-2.221 -13.506,-6.664c-2.792,-3.19 -4.616,-6.236 -5.471,-9.14c-0.627,-1.994 -0.94,-5.867 -0.94,-11.619c0,-8.144 0.313,-14.664 0.94,-19.562c1.596,-12.7 5.328,-28.561 11.198,-47.584c3.305,-10.82 6.44,-20.032 9.403,-27.634c2.963,-7.603 4.986,-11.405 6.069,-11.405l0.427,0c0.627,0 1.282,-0.541 1.966,-1.624c0.399,-0.741 0.684,-1.111 0.855,-1.111c0.228,0 0.342,0.285 0.342,0.855l-0.256,2.992c0,1.425 0.342,2.137 1.026,2.137l0.769,0c0.627,0 0.94,0.37 0.94,1.111c0,0.798 -0.399,2.251 -1.197,4.36c-0.513,1.311 -0.769,2.137 -0.769,2.479c0,0.114 0.028,0.171 0.085,0.171c0.171,0 0.598,-0.513 1.282,-1.539c1.254,-1.482 1.881,-2.778 1.881,-3.889c0,-1.111 0.456,-1.923 1.368,-2.436c0.228,-0.171 0.399,-0.256 0.513,-0.256c0.171,0 0.256,0.171 0.256,0.513c0,0.399 -0.114,0.997 -0.342,1.795c-0.798,2.393 -1.197,4.559 -1.197,6.497c0,2.279 0.627,4.758 1.881,7.437c2.109,4.445 3.163,7.522 3.163,9.232l0,2.735c0,3.362 -1.026,7.95 -3.077,13.762c-2.393,7.009 -3.761,11.853 -4.103,14.532c0,1.824 -0.37,3.248 -1.111,4.274c-1.026,1.824 -2.593,8.748 -4.701,20.772c-0.855,4.673 -1.282,7.779 -1.282,9.317c0,2.279 0.541,3.419 1.624,3.419c3.077,0 10.571,-9.033 22.482,-27.098l4.189,-6.582c2.166,-3.476 4.246,-6.326 6.24,-8.548c2.223,-2.45 4.117,-5.129 5.684,-8.035c1.567,-2.906 3.946,-6.411 7.138,-10.514c3.932,-5.015 6.069,-7.522 6.411,-7.522l0,0.085c0,0.228 -0.256,0.883 -0.769,1.966c-0.114,0.285 -0.171,0.513 -0.171,0.684c0,0.114 0.028,0.171 0.085,0.171c0.399,0 1.795,-1.311 4.189,-3.932c2.906,-3.191 4.644,-4.787 5.214,-4.787c0.171,0 0.256,0.085 0.256,0.256c0,0.798 -1.154,3.163 -3.462,7.095c-2.308,3.932 -3.462,6.24 -3.462,6.924c0,0.114 0.057,0.171 0.171,0.171c0.399,0 1.681,-1.197 3.847,-3.59c1.938,-2.109 3.248,-3.163 3.932,-3.163c0.342,0 0.513,0.285 0.513,0.855c0,0.912 -0.456,2.564 -1.368,4.958c-0.456,1.083 -0.684,1.966 -0.684,2.65c0,0.798 0.285,1.353 0.855,1.667c0.57,0.313 0.855,0.926 0.855,1.838c0,1.596 -0.798,4.417 -2.393,8.463c-0.513,1.254 -0.94,2.052 -1.282,2.393c-0.627,0.741 -0.94,1.567 -0.94,2.479c0,0.114 0.057,0.171 0.171,0.171c0.57,0 1.938,-1.254 4.103,-3.761c1.881,-2.223 3.163,-3.334 3.847,-3.334c0.342,0.057 0.513,0.342 0.513,0.855c0,1.254 -0.997,3.804 -2.992,7.651c-1.995,3.847 -5.827,9.816 -11.497,17.908c-5.67,8.092 -11.568,16.156 -17.695,24.191c-6.126,8.035 -10.899,13.848 -14.318,17.438c-10.429,10.714 -19.661,16.07 -27.696,16.07Zm6.753,-4.189c0.228,0 0.655,-0.128 1.282,-0.385c0.627,-0.256 1.054,-0.499 1.282,-0.727c0.228,-0.228 0.342,-0.399 0.342,-0.513c0,-0.285 -0.199,-0.427 -0.598,-0.427c-0.456,0 -1.026,0.342 -1.71,1.026c-0.513,0.456 -0.769,0.769 -0.769,0.94c0,0.057 0.057,0.085 0.171,0.085Zm-14.104,-2.137c0.171,0 0.256,-0.142 0.256,-0.427c0,-0.285 -0.912,-1.197 -2.735,-2.735l-2.821,-2.393c3.134,3.704 4.901,5.556 5.3,5.556Zm19.49,-0.085c0.969,0 3.448,-1.852 7.437,-5.556c1.995,-1.938 2.992,-2.992 2.992,-3.163c-0.114,0 -0.57,0.313 -1.368,0.94c-2.678,2.223 -5.157,4.103 -7.437,5.642c-1.254,0.855 -1.881,1.51 -1.881,1.966c0,0.114 0.085,0.171 0.256,0.171Zm-24.875,-6.411c0.228,0 0.342,-0.171 0.342,-0.513c0,-0.798 -0.456,-2.023 -1.368,-3.676c-0.798,-1.482 -1.368,-2.223 -1.71,-2.223c-0.114,0 -0.171,0.114 -0.171,0.342c0,0.798 0.199,1.695 0.598,2.693c0.399,0.997 0.826,1.809 1.282,2.436c0.456,0.627 0.798,0.94 1.026,0.94Zm44.621,-140.616c-1.482,0 -2.45,-0.456 -2.906,-1.368c-0.513,-1.14 -1.368,-1.71 -2.564,-1.71c-0.513,0 -1.339,-0.285 -2.479,-0.855c-1.14,-0.57 -2.279,-1.311 -3.419,-2.223c-2.849,-2.052 -4.872,-3.077 -6.069,-3.077c-1.197,0 -2.052,-0.513 -2.564,-1.539l0,-0.256c0,-1.197 1.225,-4.559 3.676,-10.087c2.678,-5.984 4.388,-8.976 5.129,-8.976c0.285,0 1.311,0.442 3.077,1.325c1.767,0.883 3.79,1.952 6.069,3.206c2.279,1.254 4.402,2.465 6.368,3.633c1.966,1.168 3.377,2.066 4.231,2.693c0.855,0.627 1.71,1.282 2.564,1.966l-6.838,15.387c-0.798,1.254 -2.223,1.881 -4.274,1.881Z" style="fill-rule: nonzero;" class="svg-elem-10"></path><path d="M1432.663,367.569c-3.191,0 -6.24,-0.912 -9.146,-2.735c-4.103,-2.621 -6.767,-6.269 -7.992,-10.942c-1.225,-4.673 -1.838,-9.659 -1.838,-14.959c0,-11.227 2.507,-29.149 7.522,-53.768c5.471,-27.069 8.919,-40.604 10.343,-40.604l0.171,0c0.285,0 0.598,-0.185 0.94,-0.556c0.342,-0.37 0.627,-0.841 0.855,-1.41c0.228,-0.57 0.427,-0.855 0.598,-0.855c0.228,0 0.37,1.04 0.427,3.12c0.057,2.08 0.171,3.263 0.342,3.547c0.171,0.285 0.342,0.427 0.513,0.427c0.228,0 0.57,-0.199 1.026,-0.598c0.456,-0.399 0.798,-0.598 1.026,-0.598c0.285,0 0.427,0.37 0.427,1.111c0,0.627 -0.085,1.581 -0.256,2.864c-0.171,1.282 -0.356,2.564 -0.556,3.847c-0.199,1.282 -0.385,2.265 -0.556,2.949l-0.085,0.769c0,0.513 0.142,0.798 0.427,0.855c0.684,0 1.396,-2.308 2.137,-6.924c0.57,-4.103 1.168,-6.155 1.795,-6.155c0.228,0 0.37,0.484 0.427,1.453c0,0.969 -0.142,2.166 -0.427,3.59c-0.399,2.279 -0.598,4.673 -0.598,7.18c0,6.041 0.627,10.001 1.881,11.882c0.969,1.254 1.653,4.075 2.052,8.463c0.513,4.559 1.111,6.838 1.795,6.838c0.399,0 0.598,0.157 0.598,0.47l0,0.727c0,1.482 -0.841,7.009 -2.522,16.583c-1.681,9.574 -2.522,16.07 -2.522,19.49c0,1.938 0.313,2.906 0.94,2.906c0.912,0 3.177,-2.493 6.796,-7.48c3.619,-4.986 12.067,-17.452 25.345,-37.398c15.842,-23.821 26.186,-38.837 31.03,-45.049c7.351,-8.605 14.076,-12.908 20.174,-12.908c2.279,0 4.075,0.883 5.385,2.65c1.71,2.678 2.978,5.613 3.804,8.805c0.826,3.191 1.239,5.898 1.239,8.121c0,3.533 -1.881,15.244 -5.642,35.133c-2.735,14.19 -5.1,25.245 -7.095,33.167c-0.798,2.963 -1.482,7.394 -2.052,13.292c-0.57,5.898 -1.197,9.987 -1.881,12.267c-0.798,2.792 -1.197,5.699 -1.197,8.719c0,2.735 -0.293,4.103 -0.88,4.103c-0.059,0 -0.132,-0.028 -0.22,-0.085c-0.087,-0.057 -0.19,-0.085 -0.307,-0.085c-0.41,0 -0.777,0.47 -1.101,1.41c-0.322,0.94 -0.484,1.966 -0.484,3.077l0,2.18c0,1.539 0.085,3.134 0.256,4.787l0,2.564c0,1.767 -0.347,2.65 -1.042,2.65c-0.636,0 -1.214,-1.368 -1.735,-4.103l-2.95,-16.241c0,9.346 -0.086,14.218 -0.258,14.617c-0.172,0.741 -0.401,1.111 -0.688,1.111c-0.687,0 -1.404,-1.14 -2.149,-3.419c-0.516,-1.425 -0.917,-2.963 -1.203,-4.616c-0.459,-3.419 -1.061,-5.129 -1.806,-5.129l-0.516,0c-1.49,0 -2.349,-5.585 -2.578,-16.754c-0.173,-6.668 -0.488,-10.001 -0.946,-10.001c-0.402,0 -0.918,2.393 -1.548,7.18c-0.687,6.326 -1.547,9.488 -2.579,9.488c-0.687,0 -1.031,-1.567 -1.031,-4.701c0,-4.502 0.504,-11.141 1.512,-19.917c0.561,-5.072 1.206,-9.232 1.934,-12.48c1.008,-4.445 1.512,-7.18 1.512,-8.206l0,-0.342c-0.456,0 -1.938,2.023 -4.445,6.069c-5.528,8.662 -12.452,18.706 -20.772,30.132c-8.32,11.426 -14.703,19.618 -19.148,24.576c-5.756,6.041 -10.172,9.887 -13.25,11.54c-3.191,1.539 -6.269,2.308 -9.232,2.308Zm47.271,-53.939c0.285,0 1.054,-0.769 2.308,-2.308c0.798,-1.026 1.61,-2.237 2.436,-3.633c0.826,-1.396 1.453,-2.536 1.881,-3.419c0.427,-0.883 0.641,-1.467 0.641,-1.752c0,-0.114 -0.057,-0.171 -0.171,-0.171c-0.285,0 -1.738,1.852 -4.36,5.556c-1.938,2.906 -2.906,4.758 -2.906,5.556c0,0.114 0.057,0.171 0.171,0.171Zm8.121,-12.48c0.285,0 0.997,-0.712 2.137,-2.137c0.741,-0.855 1.111,-1.368 1.111,-1.539l-0.085,0c-0.114,0 -0.598,0.342 -1.453,1.026c-1.482,1.197 -2.223,1.995 -2.223,2.393c0,0.171 0.171,0.256 0.513,0.256Zm9.659,-12.395c0.171,0 0.712,-0.484 1.624,-1.453c1.083,-0.969 1.624,-1.795 1.624,-2.479c0,-0.285 -0.114,-0.427 -0.342,-0.427c-0.627,0 -1.282,0.741 -1.966,2.223c-0.684,1.14 -1.026,1.824 -1.026,2.052c0,0.057 0.028,0.085 0.085,0.085Z" style="fill-rule: nonzero;" class="svg-elem-11"></path><path d="M1553.021,685.986l0,-0.085c0,-0.114 0.684,-1.311 2.052,-3.59c4.958,-8.32 8.776,-14.988 11.454,-20.003c7.636,-14.475 11.654,-22.738 12.053,-24.79l-0.085,-0.085c-0.285,0 -1.767,2.365 -4.445,7.095c-9.403,16.982 -14.646,25.473 -15.729,25.473c-0.114,0 -0.171,-0.057 -0.171,-0.171c0,-0.342 0.228,-0.969 0.684,-1.881c0.684,-1.197 1.026,-2.166 1.026,-2.906l-0.171,-0.598c0,-1.197 1.795,-5.414 5.385,-12.651c3.305,-6.554 4.958,-10.486 4.958,-11.796c0,-0.285 -0.085,-0.427 -0.256,-0.427c-0.342,0 -1.026,0.513 -2.052,1.539l-0.171,0.085c-0.057,0 -0.085,-0.085 -0.085,-0.256c0,-1.71 2.052,-7.693 6.155,-17.951c1.311,-3.248 3.619,-9.602 6.924,-19.062c2.849,-8.206 4.274,-12.765 4.274,-13.677l-0.085,-0.171c-0.342,0 -1.795,2.963 -4.36,8.89c-1.425,3.419 -3.049,7.024 -4.872,10.813c-1.824,3.79 -3.462,6.967 -4.915,9.531c-1.453,2.564 -2.351,3.847 -2.693,3.847c0,-0.513 0.997,-3.661 2.992,-9.446c1.995,-5.784 4.587,-12.979 7.779,-21.584c9.175,-24.79 16.327,-45.59 21.456,-62.401c5.129,-16.811 9.602,-34.135 13.421,-51.973c5.984,-26.442 10.543,-60.065 13.677,-100.868c0.456,-6.611 0.684,-16.013 0.684,-28.209c0,-22.225 -0.37,-36.016 -1.111,-41.373l-0.94,-5.556l-4.701,14.19c-16.241,48.325 -29.804,79.583 -40.689,93.773c-5.756,7.066 -10.785,11.269 -15.087,12.608c-4.303,1.339 -7.565,2.009 -9.788,2.009c-3.647,0 -7.095,-0.969 -10.343,-2.906c-5.186,-3.077 -9.146,-8.577 -11.882,-16.498c-1.368,-4.73 -2.052,-11.996 -2.052,-21.798c0,-11.17 0.741,-20.857 2.223,-29.064c3.305,-18.008 7.864,-33.594 13.677,-46.758c5.984,-13.962 12.409,-25.744 19.276,-35.346c6.867,-9.602 15.515,-18.849 25.944,-27.739c6.269,-5.471 9.745,-8.206 10.429,-8.206c0.114,0 0.171,0.028 0.171,0.085c0,0.342 -0.798,1.396 -2.393,3.163c-0.912,0.969 -1.368,1.539 -1.368,1.71l0.085,0c0.342,0 1.938,-1.054 4.787,-3.163c3.932,-2.735 6.269,-4.103 7.009,-4.103c0.057,0 0.085,0.028 0.085,0.085c0,0.513 -1.653,1.995 -4.958,4.445c-4.958,3.533 -7.437,6.24 -7.437,8.121c0.057,0.399 0.256,0.598 0.598,0.598c0.627,0 1.482,-0.598 2.564,-1.795c0.684,-0.969 1.282,-1.453 1.795,-1.453c0.114,0 0.199,0.028 0.256,0.085c0,0.228 -0.584,0.997 -1.752,2.308c-1.168,1.311 -2.75,2.906 -4.744,4.787c-1.995,1.881 -4.003,3.904 -6.026,6.069c-2.023,2.166 -3.576,3.961 -4.659,5.385c-0.912,1.197 -1.368,1.881 -1.368,2.052l0,0.085c0.399,0 2.621,-1.938 6.668,-5.813c10.03,-9.46 15.273,-14.19 15.729,-14.19l0,0.085c0,0.399 -3.562,4.345 -10.685,11.839c-7.123,7.494 -11.227,12.381 -12.309,14.66l-4.103,8.206c-1.14,2.223 -1.71,3.989 -1.71,5.3c0,0.228 0.043,0.427 0.128,0.598c0.085,0.171 0.128,0.427 0.128,0.769c0,0.969 -0.47,2.194 -1.41,3.676c-0.94,1.482 -1.41,2.422 -1.41,2.821c0,0.057 0.028,0.085 0.085,0.085c0.057,0 0.085,0.057 0.085,0.171c0,0.798 -0.841,3.661 -2.522,8.591c-1.681,4.929 -2.522,8.277 -2.522,10.044l0,1.197c0,1.482 -0.566,3.733 -1.698,6.753c-1.472,3.875 -3.226,9.317 -5.264,16.327c-2.037,7.009 -3.537,12.794 -4.498,17.353c-1.307,6.098 -2.217,13.962 -2.73,23.593c-0.228,3.362 -0.342,5.813 -0.342,7.351c0,4.616 0.741,6.924 2.223,6.924c0.969,0 2.308,-0.997 4.018,-2.992c6.383,-6.212 18.008,-34.905 34.876,-86.079c4.844,-14.76 8.762,-26.157 11.754,-34.192c2.992,-8.035 5.571,-13.919 7.736,-17.652c2.166,-3.733 4.445,-6.539 6.838,-8.42c3.02,-2.507 5.086,-3.818 6.197,-3.932c1.111,-0.114 1.752,-0.171 1.923,-0.171c1.824,0 3.676,0.912 5.556,2.735c3.134,2.735 5.813,8.235 8.035,16.498c2.223,8.263 4.36,20.658 6.411,37.184c1.083,10.486 1.624,25.73 1.624,45.732c0,24.847 -0.769,45.903 -2.308,63.171c-3.191,31.457 -7.209,58.327 -12.053,80.609c-1.995,8.947 -3.191,14.475 -3.59,16.583c-1.995,8.491 -5.841,23.222 -11.54,44.194c-1.596,5.3 -3.533,10.856 -5.813,16.669c-4.388,10.885 -9.317,24.248 -14.788,40.091c-2.052,5.927 -6.269,14.959 -12.651,27.098c-6.383,12.138 -10.03,18.207 -10.942,18.207c-0.228,-0.114 -0.399,-0.171 -0.513,-0.171c-0.057,0 -0.085,0.028 -0.085,0.085c0,0.114 0.057,0.285 0.171,0.513c0.114,0.228 0.171,0.456 0.171,0.684c0,1.026 -0.57,2.906 -1.71,5.642c-1.425,3.476 -2.507,5.214 -3.248,5.214c-0.057,0 -0.085,-0.057 -0.085,-0.171c0,-0.57 0.513,-1.824 1.539,-3.761c1.026,-1.938 1.539,-3.248 1.539,-3.932l-0.085,-0.171c-0.456,0 -3.362,4.53 -8.719,13.591c-5.129,8.662 -9.374,14.902 -12.737,18.72c-2.279,2.393 -3.562,3.59 -3.847,3.59Zm77.959,-323.29c0.228,0 0.342,-1.653 0.342,-4.958c0,-3.248 -0.114,-4.872 -0.342,-4.872c-0.228,0 -0.342,1.624 -0.342,4.872c0,3.305 0.114,4.958 0.342,4.958Zm1.197,-13.762c0.342,0 0.513,-1.254 0.513,-3.761c0,-1.995 -0.269,-2.992 -0.808,-2.992c-0.539,0 -0.868,0.513 -0.987,1.539l0,0.94c0,0.57 0.057,1.14 0.171,1.71c0.513,1.71 0.883,2.564 1.111,2.564Zm-0.171,-8.634c0.342,0 0.513,-0.37 0.513,-1.111c0,-0.456 -0.078,-0.898 -0.235,-1.325c-0.157,-0.427 -0.287,-0.641 -0.391,-0.641c-0.157,0 -0.261,0.456 -0.314,1.368c0,1.14 0.142,1.71 0.427,1.71Zm0.256,-8.377c0.285,0 0.427,-1.254 0.427,-3.761c0,-2.109 -0.285,-3.163 -0.855,-3.163c-0.456,0 -0.684,0.826 -0.684,2.479c0,1.083 0.142,2.223 0.427,3.419c0.171,0.684 0.399,1.026 0.684,1.026Zm-7.95,-39.492c0.228,0 0.712,-0.541 1.453,-1.624c0.741,-1.083 1.51,-1.624 2.308,-1.624c0.285,0 0.613,0.114 0.983,0.342c0.37,0.228 0.67,0.342 0.898,0.342c0.171,0 0.256,-0.114 0.256,-0.342c0,-0.285 -0.114,-0.712 -0.342,-1.282c-0.228,-0.57 -0.427,-1.168 -0.598,-1.795c-0.171,-0.627 -0.256,-1.083 -0.256,-1.368c0,-0.912 -0.199,-1.368 -0.598,-1.368c-0.912,0 -1.909,1.368 -2.992,4.103c-0.855,2.279 -1.282,3.704 -1.282,4.274c0,0.228 0.057,0.342 0.171,0.342Zm-51.545,370.475c-0.228,0 -0.342,-0.342 -0.342,-1.026c0,-0.342 0.114,-0.698 0.342,-1.069c0.228,-0.37 0.47,-0.627 0.727,-0.769c0.256,-0.142 0.442,-0.214 0.556,-0.214c0.171,0 0.256,0.114 0.256,0.342c0,0.228 -0.057,0.541 -0.171,0.94c-0.513,1.197 -0.969,1.795 -1.368,1.795Z" style="fill-rule: nonzero;" class="svg-elem-12"></path></svg>